<svg xmlns="http://www.w3.org/2000/svg">
<symbol id="vk" viewBox="0 0 126 72">
<path clip-path="url(#SVGID_2_)" d="M124.523,64.503c-0.152-0.328-0.293-0.597-0.426-0.816
			c-2.172-3.91-6.324-8.711-12.449-14.401l-0.129-0.134l-0.066-0.063l-0.066-0.066h-0.063c-2.781-2.651-4.543-4.434-5.281-5.344
			c-1.348-1.738-1.652-3.5-0.914-5.281c0.523-1.348,2.477-4.19,5.867-8.538c1.781-2.302,3.195-4.149,4.234-5.539
			c7.52-9.996,10.777-16.383,9.777-19.164l-0.387-0.649c-0.262-0.39-0.934-0.75-2.02-1.074c-1.086-0.327-2.477-0.383-4.172-0.163
			L99.656,3.398c-0.301-0.105-0.738-0.099-1.301,0.034c-0.566,0.13-0.852,0.195-0.852,0.195L97.18,3.793l-0.258,0.195
			c-0.219,0.129-0.457,0.354-0.719,0.683c-0.258,0.325-0.477,0.707-0.648,1.142c-2.047,5.258-4.367,10.145-6.977,14.663
			c-1.609,2.695-3.086,5.031-4.434,7.009c-1.348,1.976-2.477,3.434-3.387,4.366c-0.914,0.935-1.738,1.685-2.477,2.246
			c-0.742,0.567-1.305,0.806-1.695,0.72c-0.391-0.091-0.762-0.177-1.109-0.263c-0.609-0.39-1.098-0.922-1.465-1.597
			c-0.371-0.672-0.621-1.52-0.75-2.543c-0.129-1.021-0.207-1.899-0.23-2.637c-0.02-0.738-0.008-1.785,0.035-3.129
			c0.043-1.349,0.066-2.263,0.066-2.738c0-1.653,0.031-3.446,0.094-5.379c0.066-1.935,0.121-3.465,0.164-4.594
			c0.043-1.13,0.066-2.324,0.066-3.587c0-1.258-0.078-2.245-0.23-2.965c-0.148-0.715-0.379-1.41-0.684-2.086
			c-0.305-0.672-0.75-1.194-1.336-1.562c-0.586-0.371-1.313-0.664-2.18-0.883c-2.305-0.521-5.238-0.802-8.8-0.849
			c-8.082-0.086-13.274,0.438-15.579,1.567c-0.914,0.476-1.738,1.129-2.476,1.953c-0.781,0.957-0.891,1.479-0.328,1.565
			c2.609,0.392,4.453,1.325,5.543,2.802l0.39,0.784c0.305,0.563,0.61,1.563,0.911,2.996c0.304,1.435,0.5,3.021,0.585,4.758
			c0.219,3.173,0.219,5.888,0,8.149c-0.214,2.257-0.421,4.019-0.617,5.277c-0.195,1.262-0.488,2.28-0.879,3.065
			c-0.39,0.782-0.652,1.258-0.785,1.435c-0.129,0.172-0.238,0.28-0.324,0.323c-0.566,0.22-1.152,0.328-1.762,0.328
			c-0.605,0-1.344-0.304-2.215-0.914c-0.867-0.608-1.769-1.444-2.703-2.512c-0.933-1.062-1.988-2.55-3.164-4.464
			c-1.172-1.911-2.386-4.168-3.648-6.778l-1.043-1.89c-0.653-1.215-1.543-2.985-2.672-5.313c-1.129-2.323-2.129-4.569-2.996-6.745
			c-0.348-0.91-0.871-1.605-1.567-2.087l-0.324-0.194c-0.219-0.172-0.566-0.356-1.043-0.556c-0.48-0.194-0.976-0.336-1.5-0.422
			L4.172,3.265c-1.824,0-3.063,0.414-3.715,1.238L0.195,4.895C0.066,5.113,0,5.46,0,5.938c0,0.48,0.129,1.065,0.391,1.762
			C3,13.824,5.832,19.734,8.898,25.425c3.063,5.696,5.723,10.278,7.981,13.754c2.262,3.478,4.562,6.758,6.91,9.84
			c2.348,3.086,3.902,5.063,4.66,5.935c0.762,0.871,1.36,1.519,1.793,1.953l1.629,1.565c1.043,1.043,2.574,2.293,4.598,3.746
			c2.02,1.457,4.258,2.891,6.711,4.305c2.457,1.41,5.312,2.563,8.574,3.453c3.258,0.892,6.43,1.25,9.516,1.074h7.496
			c1.52-0.129,2.672-0.609,3.453-1.433l0.258-0.324c0.176-0.262,0.34-0.665,0.488-1.208c0.152-0.542,0.23-1.14,0.23-1.792
			c-0.043-1.868,0.098-3.551,0.422-5.051c0.324-1.496,0.695-2.625,1.109-3.388c0.414-0.762,0.879-1.401,1.402-1.922
			c0.52-0.522,0.891-0.836,1.109-0.944c0.215-0.11,0.387-0.185,0.52-0.231c1.043-0.347,2.27-0.007,3.684,1.012
			c1.41,1.024,2.734,2.281,3.977,3.781c1.238,1.5,2.727,3.184,4.461,5.051c1.742,1.867,3.262,3.258,4.563,4.172l1.305,0.781
			c0.871,0.524,2,1,3.391,1.435c1.391,0.437,2.605,0.547,3.648,0.327l16.688-0.262c1.648,0,2.934-0.272,3.844-0.815
			c0.914-0.544,1.453-1.142,1.629-1.789c0.176-0.653,0.184-1.392,0.035-2.22C124.824,65.406,124.672,64.828,124.523,64.503
			L124.523,64.503z M124.523,64.503"/>
</symbol>
<symbol id="fb" viewBox="0 0 36.711 36.711">
<path fill="#FFFFFF" d="M36.711,34.686c0,1.119-0.907,2.025-2.026,2.025H25.33V22.495h4.771l0.715-5.541H25.33v-3.537
	c0-1.604,0.445-2.696,2.746-2.696l2.934-0.001V5.764c-0.508-0.067-2.249-0.219-4.275-0.219c-4.23,0-7.127,2.582-7.127,7.323v4.086
	h-4.784v5.541h4.784v14.216H2.026C0.907,36.711,0,35.805,0,34.686V2.026C0,0.907,0.907,0,2.026,0h32.659
	c1.119,0,2.026,0.907,2.026,2.026V34.686z"/>
</symbol>
<symbol id="inst" viewBox="0 0 36.663 36.664">
<path d="M32.305,0H4.357C1.95,0,0,1.946,0,4.349v27.967c0,2.4,1.95,4.348,4.357,4.348h27.947
	c2.407,0,4.358-1.947,4.358-4.348V4.349C36.663,1.946,34.712,0,32.305,0 M26.352,5.729c0-0.632,0.513-1.146,1.146-1.146h3.438
	c0.632,0,1.145,0.514,1.145,1.146v3.438c0,0.633-0.513,1.146-1.145,1.146h-3.438c-0.633,0-1.146-0.513-1.146-1.146V5.729z
	 M18.374,11.341c3.894,0,7.051,3.149,7.051,7.033c0,3.885-3.157,7.034-7.051,7.034s-7.051-3.148-7.051-7.034
	C11.323,14.49,14.48,11.341,18.374,11.341 M33.226,32.08c0,0.633-0.513,1.146-1.146,1.146H4.583c-0.633,0-1.146-0.514-1.146-1.146
	V14.895H8.02c-0.597,0.858-0.798,2.462-0.798,3.479c0,6.135,5.003,11.127,11.152,11.127s11.153-4.992,11.153-11.127
	c0-1.018-0.145-2.596-0.885-3.479h4.583V32.08z"/>
</symbol>
<symbol id="tw" viewBox="0 0 37.453 31.21">
<path d="M36.421,0.577c-1.486,0.902-3.129,1.558-4.884,1.909C30.14,0.956,28.142,0,25.93,0
	c-4.24,0-7.682,3.528-7.682,7.879c0,0.618,0.066,1.217,0.198,1.794C12.061,9.344,6.399,6.211,2.607,1.438
	c-0.662,1.168-1.04,2.522-1.04,3.966c0,2.731,1.356,5.144,3.418,6.557c-1.257-0.038-2.444-0.396-3.481-0.981v0.096
	c0,3.819,2.648,7.004,6.167,7.725c-0.645,0.186-1.324,0.277-2.025,0.277c-0.495,0-0.979-0.047-1.447-0.139
	c0.979,3.129,3.815,5.408,7.179,5.469c-2.63,2.115-5.944,3.375-9.544,3.375c-0.619,0-1.232-0.037-1.833-0.109
	c3.4,2.232,7.441,3.537,11.778,3.537c14.136,0,21.863-12.004,21.863-22.417c0-0.343-0.006-0.685-0.021-1.021
	c1.502-1.112,2.807-2.498,3.832-4.078c-1.376,0.626-2.857,1.05-4.412,1.24C34.629,3.961,35.847,2.417,36.421,0.577"/>
</symbol>
<symbol id="phone" viewBox="0 0 11 11">
	<path fill="#E45028" d="M10.758,9.774c-0.164,0.383-0.602,0.633-0.953,0.828C9.344,10.852,8.875,11,8.352,11
		c-0.727,0-1.383-0.297-2.047-0.539c-0.477-0.172-0.938-0.383-1.367-0.648c-1.328-0.82-2.93-2.422-3.75-3.75
		C0.922,5.633,0.711,5.172,0.54,4.695C0.297,4.031,0,3.375,0,2.648c0-0.523,0.148-0.992,0.398-1.453
		c0.196-0.352,0.446-0.789,0.829-0.953C1.485,0.125,2.032,0,2.313,0c0.055,0,0.109,0,0.164,0.023
		c0.164,0.055,0.336,0.438,0.414,0.594c0.25,0.445,0.492,0.898,0.75,1.336C3.766,2.156,4,2.406,4,2.648
		C4,3.125,2.586,3.82,2.586,4.242c0,0.211,0.195,0.484,0.305,0.672C3.68,6.336,4.665,7.321,6.086,8.11
		c0.188,0.109,0.461,0.305,0.672,0.305C7.18,8.415,7.875,7,8.352,7C8.594,7,8.844,7.235,9.047,7.36
		c0.438,0.258,0.891,0.5,1.336,0.75c0.156,0.078,0.539,0.25,0.594,0.414C11,8.579,11,8.633,11,8.688
		C11,8.969,10.875,9.516,10.758,9.774z"/>
</symbol>
<symbol id="burggg" viewBox="0 0 45.748 44.625">
	<g>
	<g>
		<path fill-rule="evenodd" clip-rule="evenodd" fill="#FFFFFF" d="M8.502,31.551c-0.005-0.227-0.009-0.484-0.015-0.742
			c0.044-0.023,0.088-0.045,0.133-0.068c0.069,0.152,0.167,0.297,0.201,0.457c0.05,0.23,0.127,0.496,0.056,0.701
			c-0.055,0.162-0.314,0.254-0.496,0.387c-0.348-0.66-0.842-0.865-1.437-0.65c-0.105,0.039-0.175,0.189-0.252,0.295
			c-0.241,0.33-0.48,0.662-0.714,0.998c-0.109,0.156-0.204,0.32-0.335,0.529c-0.415-0.328-0.825-0.654-1.236-0.979
			c0.023-0.045,0.046-0.09,0.069-0.133c0.183,0.094,0.375,0.17,0.546,0.283c0.227,0.15,0.415,0.223,0.581-0.08
			c0.031-0.057,0.154-0.063,0.236-0.09c0.083-0.029,0.226-0.045,0.237-0.09c0.023-0.104,0.003-0.232-0.04-0.334
			c-0.079-0.189-0.187-0.367-0.283-0.549c0.051-0.023,0.102-0.049,0.152-0.072c0.084,0.143,0.169,0.287,0.345,0.584
			c-0.078-0.893,0.632-0.66,0.975-0.922C7.851,30.594,7.861,31.693,8.502,31.551z"/>
		<path fill-rule="evenodd" clip-rule="evenodd" fill="#FFFFFF" d="M16.007,37.963c-0.75-0.012-1.312,0.143-1.558,0.879
			c-0.103,0.307-0.503,0.301-0.704,0.014c-0.105-0.154-0.203-0.314-0.353-0.545c-0.094,0.248-0.148,0.391-0.242,0.641
			c-0.057-0.154-0.112-0.229-0.094-0.264c0.211-0.414,0.335-0.816-0.062-1.197c0.119-0.121,0.22-0.287,0.364-0.348
			c0.099-0.041,0.259,0.064,0.424,0.113c0.004,0.09,0.01,0.193,0.015,0.295c0.033,0.592,0.359,0.785,0.878,0.518
			c0.224-0.115,0.449-0.24,0.652-0.389C15.691,37.412,15.876,37.539,16.007,37.963z"/>
		<path fill-rule="evenodd" clip-rule="evenodd" fill="#FFFFFF" d="M17.395,21.903c-0.091,0.901-0.292,1.669-0.899,2.27
			c-0.074,0.073-0.274,0.073-0.385,0.03c-0.059-0.023-0.095-0.225-0.069-0.325c0.095-0.362,0.266-0.71,0.326-1.075
			C16.46,22.23,16.982,22.217,17.395,21.903z"/>
		<path fill-rule="evenodd" clip-rule="evenodd" fill="#FFFFFF" d="M22.163,30.629c-0.577,0.775-0.577,0.775-0.4,0.992
			c-0.256,0.152-0.623,0.371-0.988,0.588c0.015-0.127,0.03-0.254,0.044-0.379c-0.169-0.328-0.339-0.656-0.509-0.982
			c0.533,0.305,0.883,0.223,1.176-0.309C21.734,30.09,21.971,30.338,22.163,30.629z"/>
		<path fill-rule="evenodd" clip-rule="evenodd" fill="#FFFFFF" d="M20.667,40.943c-0.27-0.041-0.447-0.068-0.676-0.102
			c-0.019,0.078-0.049,0.199-0.117,0.48c-0.345-0.408-0.628-0.74-0.913-1.076C19.673,39.783,19.942,39.879,20.667,40.943z"/>
		<path fill-rule="evenodd" clip-rule="evenodd" fill="#FFFFFF" d="M24.867,31.467c0.313-0.396,0.596-0.754,0.878-1.109
			c0.054,0.041,0.108,0.082,0.162,0.121c-0.086,0.109-0.202,0.207-0.251,0.33c-0.068,0.176-0.143,0.381-0.116,0.557
			c0.054,0.352-0.396,1.168-0.733,1.227c-0.063,0.012-0.152-0.01-0.198-0.051c-0.038-0.033-0.056-0.127-0.038-0.18
			C24.67,32.035,24.785,31.711,24.867,31.467z"/>
		<path fill-rule="evenodd" clip-rule="evenodd" fill="#FFFFFF" d="M23.006,32.898c0.396-0.1,0.793-0.199,1.241-0.313
			c0.067,0.129-0.488,0.473,0.044,0.674c-0.439-0.08-0.878-0.162-1.318-0.242C22.985,32.977,22.996,32.938,23.006,32.898z"/>
		<path fill-rule="evenodd" clip-rule="evenodd" fill="#FFFFFF" d="M13.699,31.629c-0.15-0.457-0.234-0.713-0.317-0.969
			c0.03-0.043,0.06-0.088,0.09-0.133c0.21,0.16,0.456,0.293,0.607,0.496C14.121,31.08,13.883,31.346,13.699,31.629z"/>
		<path fill-rule="evenodd" clip-rule="evenodd" fill="#FFFFFF" d="M18.435,33.029c0.466,0.189,0.933,0.381,1.399,0.57
			c-0.026,0.072-0.052,0.143-0.078,0.213c-0.473-0.172-0.945-0.346-1.417-0.52C18.372,33.205,18.403,33.117,18.435,33.029z"/>
		<path fill-rule="evenodd" clip-rule="evenodd" fill="#FFFFFF" d="M17.017,43.357c0.435,0.342,0.806,0.637,1.257,0.994
			C17.438,44.225,17.009,43.895,17.017,43.357z"/>
		<path fill-rule="evenodd" clip-rule="evenodd" fill="#FFFFFF" d="M19.689,37.084c0.444,0.242,0.375,0.605-0.315,1.201
			c0.055-0.191,0.114-0.385,0.165-0.578C19.592,37.502,19.639,37.295,19.689,37.084z"/>
		<path fill-rule="evenodd" clip-rule="evenodd" fill="#FFFFFF" d="M15.994,44.625c-0.127-0.264-0.226-0.447-0.302-0.639
			c-0.035-0.084-0.068-0.227-0.026-0.27c0.058-0.061,0.261-0.092,0.274-0.068c0.116,0.215,0.229,0.439,0.283,0.674
			C16.239,44.4,16.08,44.518,15.994,44.625z"/>
		<path fill-rule="evenodd" clip-rule="evenodd" fill="#FFFFFF" d="M17.326,39.959c-0.298-0.303-0.588-0.607-0.023-1.18
			c0.074,0.465,0.128,0.809,0.184,1.152C17.432,39.941,17.379,39.949,17.326,39.959z"/>
		<path fill-rule="evenodd" clip-rule="evenodd" fill="#FFFFFF" d="M14.704,31.406c0.295,0.266,0.589,0.529,0.884,0.795
			c-0.052,0.053-0.104,0.105-0.155,0.158c-0.332-0.229-0.72-0.4-0.875-0.805C14.607,31.506,14.655,31.455,14.704,31.406z"/>
		<path fill-rule="evenodd" clip-rule="evenodd" fill="#FFFFFF" d="M13.478,28.348c0.315-0.174,0.612-0.338,0.999-0.552
			c0.008,0.116,0.056,0.364,0.022,0.375C14.176,28.281,13.903,28.785,13.478,28.348z"/>
		<path fill-rule="evenodd" clip-rule="evenodd" fill="#FFFFFF" d="M13.128,39.658c-0.044,0.549-0.087,1.098-0.13,1.648
			c-0.063-0.004-0.127-0.01-0.19-0.016c0.04-0.543,0.08-1.088,0.121-1.631C12.996,39.658,13.062,39.658,13.128,39.658z"/>
		<path fill-rule="evenodd" clip-rule="evenodd" fill="#FFFFFF" d="M26.183,27.408c0.021,0.434,0.04,0.867,0.061,1.301
			c-0.045,0.006-0.089,0.01-0.133,0.016c-0.035-0.434-0.07-0.867-0.104-1.299C26.066,27.42,26.125,27.414,26.183,27.408z"/>
	</g>
	<path fill-rule="evenodd" clip-rule="evenodd" fill="#FFFFFF" d="M18.652,6.31c-0.299,0.024-0.6,0.048-0.901,0.071l-0.323,0.465
		l0.57,0.557c0.673,0.658,1.439,1.02,2.16,1.02c0,0,0,0,0,0c0.641,0,1.213-0.295,1.571-0.811c0.288-0.416,0.236-0.938,0.179-1.211
		c-0.087-0.418-0.285-0.733-0.575-0.913c-0.493-0.306-0.984-0.461-1.459-0.461c-0.518,0-1.258,0.193-1.909,1.059
		c0.213-0.034,0.428-0.071,0.638-0.091C18.62,6.1,18.636,6.204,18.652,6.31z"/>
	<path fill-rule="evenodd" clip-rule="evenodd" fill="#FFFFFF" d="M8.786,10.472L7.979,9.504l-0.7,1.049
		c-0.042,0.063-0.101,0.129-0.157,0.198C6.841,11.089,6.417,11.6,6.674,12.24c0.2,0.496,0.498,0.925,0.762,1.304
		c0.091,0.132,0.183,0.263,0.269,0.396L8.1,14.457l1.531-0.275l0.185-0.514c0.021-0.06,0.057-0.125,0.09-0.192
		c0.165-0.335,0.44-0.894,0.115-1.447c-0.266-0.454-0.596-0.827-0.915-1.188C8.999,10.719,8.89,10.597,8.786,10.472z"/>
	<path fill-rule="evenodd" clip-rule="evenodd" fill="#FFFFFF" d="M29.132,11.011l0.666,0.866l2.879-2.983l-0.756-0.651
		c-0.063-0.055-0.138-0.129-0.213-0.203c-0.341-0.336-0.635-0.625-1.097-0.625l-0.274,0.004l-0.221,0.131
		c-0.619,0.363-1.136,0.826-1.6,1.27c-0.643,0.609-0.131,1.25,0.242,1.719C28.871,10.678,29.001,10.841,29.132,11.011z"/>
	<path fill-rule="evenodd" clip-rule="evenodd" fill="#FFFFFF" d="M14.593,13.941c0.065,0.064,0.131,0.127,0.181,0.181l0.661,0.725
		l1.025-1.009c0.374-0.361,0.76-0.735,1.112-1.16c0.494-0.598,0.079-1.182-0.225-1.609c-0.102-0.144-0.225-0.316-0.354-0.515
		L16.25,9.406l-0.807,1.104c-0.142,0.193-0.273,0.371-0.396,0.535c-0.377,0.505-0.675,0.904-0.937,1.359
		C13.713,13.092,14.264,13.624,14.593,13.941z"/>
	<path fill-rule="evenodd" clip-rule="evenodd" fill="#FFFFFF" d="M12.983,6.334c-0.078-0.049-0.156-0.098-0.236-0.145l-0.231-0.131
		h-0.253c-0.467,0-0.739,0.291-1.054,0.627c-0.063,0.068-0.126,0.137-0.18,0.188l-0.7,0.664l1.001,1.011
		c0.088,0.091,0.182,0.183,0.272,0.273c0.21-0.165,0.53-0.227,0.968-0.178c-0.237,0.146-0.348,0.415-0.484,0.644
		c0.134,0.123,0.265,0.248,0.408,0.367l0.279,0.219h0.337c0,0,0,0,0,0c0.364,0,0.602-0.17,0.995-0.452
		c0.141-0.101,0.311-0.224,0.503-0.35l1.139-0.747l-1.621-1.186c-0.357-0.266-0.661-0.49-0.968-0.693
		c-0.417-0.014-0.835-0.037-1.252-0.116C12.265,6.329,12.625,6.334,12.983,6.334z"/>
	<path fill-rule="evenodd" clip-rule="evenodd" fill="#FFFFFF" d="M22.971,14.09l0.733,1.051l2.239-2.893l-1.389-1.453
		c-0.008,0.1-0.03,0.212-0.07,0.339c-0.068,0.216,0.294,0.581,0.479,0.861c0.103,0.158,0.248,0.287,0.483,0.551
		c-1.015-0.304-1.081-0.354-1.439-1.128c-0.224-0.48-0.434-0.967-0.648-1.452l-0.486,0.743c-0.059,0.09-0.135,0.18-0.209,0.271
		c-0.285,0.348-0.674,0.823-0.63,1.448c0.042,0.596,0.411,1.029,0.708,1.377C22.822,13.9,22.904,13.994,22.971,14.09z
		 M24.776,12.685c0.11,0.04,0.202,0.396,0.152,0.56c-0.177,0.584-0.797,0.96-1.715,1.012c-0.052-0.121-0.224-0.322-0.192-0.481
		C23.135,13.213,24.274,12.504,24.776,12.685z"/>
	<path fill-rule="evenodd" clip-rule="evenodd" fill="#FFFFFF" d="M32.065,14.454c0.104,0.06,0.206,0.134,0.31,0.206
		c0.36,0.255,0.809,0.572,1.445,0.598c0.581,0,1.006-0.348,1.346-0.629c0.088-0.071,0.175-0.146,0.262-0.203l1.075-0.705
		l-2.835-2.31l-2.748,2.38L32.065,14.454z"/>
	<path fill-rule="evenodd" clip-rule="evenodd" fill="#FFFFFF" d="M17.044,2.939c-0.084,0.032-0.217,0.082-0.373,0.141
		c0.044,0.177,0.147,0.375,0.149,0.545c1.888-0.451,3.869-0.699,5.889-0.699c1.043,0,2.075,0.062,3.088,0.182
		c-0.216,0.115-0.396,0.305-0.591,0.512c-0.064,0.067-0.129,0.137-0.183,0.188l-0.698,0.658l0.993,1.02
		c0.358,0.375,0.729,0.762,1.154,1.115l0.282,0.224h0.34l0,0c0.355,0,0.605-0.171,0.981-0.429c0.144-0.1,0.317-0.219,0.515-0.342
		l1.171-0.729L28.14,4.105C27.716,3.783,27.367,3.518,27,3.28c3.531,0.593,6.788,1.915,9.438,3.868
		c3.064,2.257,4.755,4.932,5.171,8.176c0.002,0.024,0.006,0.049,0.008,0.074H17.251c0.204,0.1,0.238,0.354,0.159,0.852
		c-0.225-0.268-0.451-0.538-0.713-0.852H6.009c0.059,0.242,0.048,0.589-0.043,1.068c-0.099-0.239-0.193-0.48-0.297-0.718
		c-0.051-0.118-0.107-0.233-0.162-0.351H3.9c0.007-0.039,0.014-0.076,0.021-0.115c0.158-0.842,0.307-1.638,0.563-2.365
		c0.855-2.424,2.507-4.402,5.198-6.229c1.619-1.098,3.459-1.96,5.43-2.589c-0.119-0.622-0.237-1.246-0.355-1.866
		C12.531,2.923,10.451,3.89,8.625,5.13c-0.83,0.563-1.569,1.151-2.238,1.764c0.045,0.226-0.045,0.729,0.532,0.546
		c-0.51,0.271-1.02,0.539-1.529,0.809C5.368,8.201,5.348,8.15,5.328,8.103c0.186-0.242,0.375-0.487,0.569-0.74
		c-1.488,1.479-2.546,3.108-3.189,4.929c-0.305,0.865-0.475,1.77-0.638,2.646c-0.074,0.395-0.149,0.795-0.238,1.201l-0.25,1.145
		h5.971c-0.341-0.072-0.682-0.145-1.022-0.217c0-0.237,0-0.474,0-0.711c0.5,0.227,1,0.454,1.5,0.682
		c-0.027,0.082-0.054,0.164-0.081,0.246h35.681l-0.092-1.44c-0.015-0.286-0.029-0.524-0.059-0.759
		c-0.483-3.781-2.421-6.875-5.922-9.453c-4.018-2.96-9.291-4.59-14.847-4.59c-2.055,0-4.075,0.235-6.011,0.672
		c0.004,0.01,0.008,0.02,0.012,0.029C15.886,2.447,17.097,2.45,17.044,2.939z M10.413,4.688c0.235,0.215,0.449,0.41,0.687,0.627
		c-0.275,0.024-0.628,0.058-1.187,0.107C10.16,5.059,10.282,4.88,10.413,4.688z"/>
	<path fill-rule="evenodd" clip-rule="evenodd" fill="#FFFFFF" d="M15.996,3.127c-0.096,0.024-0.192,0.051-0.288,0.076
		c0.011,0.227-0.013,0.473-0.006,0.703c0.205-0.06,0.417-0.104,0.625-0.158C16.213,3.534,16.104,3.328,15.996,3.127z"/>
	<polygon fill-rule="evenodd" clip-rule="evenodd" fill="#FFFFFF" points="15.443,2.029 15.433,2.031 15.436,2.035 	"/>
	<path fill-rule="evenodd" clip-rule="evenodd" fill="#FFFFFF" d="M36.421,11.349l0.855,1.039l0.055-0.045
		c-0.222-0.56-0.377-1.157-0.798-1.604c-0.119-0.127-0.045-0.436-0.06-0.66c0.076-0.02,0.152-0.039,0.229-0.06
		c0.439,0.578,0.879,1.157,1.328,1.749l1.634-1.342l-0.995-1.021c-0.432-0.447-0.806-0.832-1.215-1.183l-0.266-0.229h-0.352
		c-0.721,0-1.443,1.072-1.449,1.082l-0.271,0.519l0.311,0.47C35.736,10.527,36.083,10.945,36.421,11.349z"/>
	<path fill-rule="evenodd" clip-rule="evenodd" fill="#FFFFFF" d="M43.208,31.662c0.081,0.074,0.158,0.146,0.236,0.217
		c0.029-0.41,0.04-0.822,0.014-1.23l-0.057-0.883h-0.885c-0.34,0-0.684,0.01-1.027,0.021c-0.326,0.01-0.652,0.02-0.979,0.02l0,0
		c-0.422,0-0.766-0.018-1.082-0.055c-0.586-0.07-1.122-0.104-1.637-0.104c-2.473,0-4.43,0.84-5.947,2.561
		c-0.239-0.275-0.465-0.545-0.668-0.82c-1.077-1.465-2.551-1.652-3.715-1.652h-0.076c-0.993,0.008-2.014,0.014-3.07,0.02
		c0.203,0.543,0.299,1.098,0.226,1.703c-0.007,0.059-0.054,0.123-0.114,0.182c1.022-0.006,2.01-0.012,2.973-0.02h0.063
		c1.143,0,1.717,0.232,2.197,0.885c0.324,0.441,0.686,0.854,1.034,1.252c0.156,0.178,0.315,0.359,0.474,0.545l0.803,0.949
		l0.697-1.029c1.261-1.859,2.842-2.689,5.125-2.689c0.336,0,0.693,0.023,1.068,0.059c0-0.439,0-0.865,0-1.281
		c0.087,0,0.174-0.004,0.262-0.004c0,0.178-0.041,0.369,0.01,0.533c0.07,0.234,0.159,0.5,0.328,0.658
		c0.043,0.039,0.083,0.094,0.12,0.158c0.286,0.021,0.584,0.037,0.931,0.037l0,0c0.346,0,0.691-0.012,1.037-0.021
		c0.01-0.002,0.021-0.002,0.031-0.002c-0.111,1.91-0.955,3.83-2.387,5.381c-1.765,1.912-4.182,3.029-6.631,3.064
		c-6.508,0.1-13.179,0.09-19.823-0.029c-2.327-0.041-4.633-1.094-6.325-2.891c-1.466-1.559-2.346-3.537-2.486-5.545l11.911,0.008
		c3.099,0,5.707-0.006,8.089-0.016c-0.036-0.041-0.067-0.082-0.083-0.119c-0.194-0.441-0.298-0.93-0.531-1.348
		c-0.083-0.148-0.115-0.285-0.122-0.414c-2.184,0.008-4.571,0.012-7.354,0.012L2.071,29.766l-0.039,0.902
		c-0.119,2.811,0.978,5.66,3.01,7.818c2.038,2.164,4.832,3.436,7.664,3.484c3.638,0.064,7.308,0.098,10.907,0.098
		c2.993,0,6.014-0.023,8.978-0.066c2.962-0.045,5.874-1.385,7.987-3.672c1.59-1.723,2.567-3.84,2.822-5.994
		c-0.191,0.018-0.416,0.037-0.691,0.063C42.956,32.035,43.078,31.855,43.208,31.662z M26.585,40.521
		c-0.006-0.068-0.01-0.137-0.016-0.205c0.341-0.008,0.696-0.07,1.012,0.014c0.088,0.023,0.061,0.482,0.102,0.918
		C27.165,40.904,26.875,40.715,26.585,40.521z M30.023,40.6c-0.518,0.033-1.049,0.172-1.529-0.115c0.01-0.09,0.02-0.178,0.028-0.268
		c0.511,0.033,1.021,0.064,1.532,0.098C30.044,40.408,30.034,40.504,30.023,40.6z"/>
	<path fill-rule="evenodd" clip-rule="evenodd" fill="#FFFFFF" d="M2.93,26.396c3.467,0.01,6.939,0.012,10.438,0.014
		c-0.075-0.14-0.145-0.279-0.207-0.42c-0.168-0.384,0.262-1.04,0.698-1.18c0.165-0.053,0.29-0.156,0.38-0.285
		c-0.601,0-1.198-0.001-1.797-0.001c0.206,0.571,0.408,1.134,0.607,1.688c-0.497-0.218-0.915-0.975-1.091-1.689
		c-3.019,0-6.024-0.004-9.022-0.012c-0.334-0.001-0.61-0.104-0.797-0.295c-0.172-0.175-0.26-0.415-0.254-0.693
		c0.015-0.785,0.689-0.953,1.252-0.955c1.915-0.01,3.832-0.013,5.747-0.014c-0.013-0.061-0.021-0.12-0.018-0.18
		c0.017-0.38,0.151-0.752,0.239-1.139c0.649,0.311,1.059,0.77,1.335,1.319l3.641,0.002c-0.039-0.231-0.076-0.462-0.099-0.696
		c0.203,0.295,0.354,0.515,0.465,0.696l1.549,0.001c0.579,0,1.158,0.004,1.738,0.008c0.583,0.004,1.167,0.008,1.75,0.008
		c1.025,0,1.862-0.013,2.634-0.039l0.103-0.002c0.129,0,0.244,0.012,0.354,0.029c-0.084-0.091-0.168-0.195-0.251-0.271
		c0.223-0.219,0.419-0.486,0.684-0.623c0.081-0.041,0.349,0.287,0.68,0.576c-0.296,0.194-0.494,0.387-0.675,0.467
		c0.188,0.098,0.363,0.234,0.546,0.436c0.428,0.472,0.869,0.912,1.347,1.377l-9.704,0.002c-0.186,0-0.368,0-0.554,0
		c-0.167,0.674-0.599,1.386-0.95,1.482c-0.084,0.084-0.167,0.167-0.251,0.25c0.066,0.051,0.135,0.102,0.202,0.152
		c0.519,0,1.033,0,1.554,0l14.343-0.002l-1.646-1.615c-0.371-0.364-0.721-0.699-1.053-1.018c-0.712-0.684-1.325-1.272-1.893-1.896
		c-0.03-0.033-0.063-0.063-0.095-0.096c-0.021,0.125-0.244,0.239-0.375,0.359c-0.156-0.177-0.389-0.336-0.44-0.539
		c-0.018-0.071,0.088-0.178,0.235-0.325c-0.598-0.425-1.267-0.63-2.058-0.63l-0.168,0.002c-0.75,0.026-1.566,0.039-2.569,0.039
		c-0.58,0-1.159-0.005-1.738-0.008c-0.583-0.004-1.167-0.008-1.77-0.008L9.049,20.67c-0.121,0-0.241,0-0.361,0
		c0.044,0.098,0.107,0.236,0.214,0.47c-0.675-0.135-1.229-0.247-1.785-0.356c0.013-0.041,0.028-0.071,0.042-0.109
		c-0.945,0.002-1.891,0.003-2.836,0.007c0.416,0.382,0.734,0.676,1.05,0.966c-0.047,0.052-0.093,0.104-0.14,0.156
		c-0.534-0.067-1.057-0.148-0.971-1.122c-0.378,0.001-0.756,0.001-1.134,0.003c-0.319,0.001-0.612,0.047-0.893,0.113
		c0.021,0.014,0.042,0.024,0.063,0.039c-0.768,0.59-1.213,1.195-0.873,2.14c0.142,0.393-0.269,0.706-0.702,0.574
		c-0.208-0.062-0.417-0.138-0.703-0.235C0.015,23.373,0.001,23.427,0,23.486c0,0.01,0.002,0.02,0.002,0.029
		c0.064,0.201,0.117,0.367,0.194,0.609c-0.061-0.037-0.11-0.063-0.154-0.085c0.095,0.569,0.351,1.088,0.75,1.495
		C1.332,26.088,2.091,26.395,2.93,26.396z"/>
	<path fill-rule="evenodd" clip-rule="evenodd" fill="#FFFFFF" d="M44.005,22.292c-0.275-0.465-1.227-0.737-2.1-0.759
		c-0.086,0.234-0.27,0.437-0.506,0.51c-0.238,0.074-0.481,0.133-0.848,0.232c0.076-0.209,0.143-0.398,0.207-0.579
		c-0.118,0.048-0.221,0.104-0.3,0.174c-1.174,1.034-2.284,2.14-3.419,3.218c0.11,0.127,0.221,0.254,0.33,0.381
		c1.725,0.006,3.457,0.1,5.166-0.059c0.649-0.061,1.474-0.633,1.781-1.205C44.568,23.742,44.326,22.83,44.005,22.292z"/>
	<path fill-rule="evenodd" clip-rule="evenodd" fill="#FFFFFF" d="M35.312,32.168c0.194-0.514,0.391-1.027,0.527-1.389
		c-0.352-0.076-0.352-0.076-0.389-1.322c-0.428-0.141-0.866-0.203-0.757,0.451c0.13,0.771-0.159,1.135-0.944,1.252
		c0.435,0.197,0.869,0.393,1.303,0.588C35.138,31.889,35.225,32.027,35.312,32.168z"/>
	<path fill-rule="evenodd" clip-rule="evenodd" fill="#FFFFFF" d="M45.734,34.465c0.061-0.066-0.094-0.469-0.139-0.467
		c-0.338,0.016-0.673,0.092-1.139,0.174c0.219,0.348,0.348,0.553,0.535,0.852C45.271,34.824,45.541,34.68,45.734,34.465z"/>
	<path fill-rule="evenodd" clip-rule="evenodd" fill="#FFFFFF" d="M45.365,31.619c-0.888-0.1-1.295,0.252-1.271,1.014
		C44.935,32.807,44.861,31.928,45.365,31.619z"/>
	<path fill-rule="evenodd" clip-rule="evenodd" fill="#FFFFFF" d="M39.714,30.416c-0.7,0.221-0.415-0.572-0.586-0.646
		c-0.362,0.471-0.684,0.891-1.006,1.309c0.021,0.047,0.041,0.098,0.063,0.146C38.695,30.953,39.205,30.686,39.714,30.416z"/>
	<path fill-rule="evenodd" clip-rule="evenodd" fill="#FFFFFF" d="M35.564,34.605c-0.03-0.092-0.061-0.182-0.092-0.273
		c-0.625,0.178-1.249,0.359-1.873,0.539c0.038,0.115,0.076,0.23,0.115,0.346C34.331,35.014,34.948,34.811,35.564,34.605z"/>
	<path fill-rule="evenodd" clip-rule="evenodd" fill="#FFFFFF" d="M38.118,37.973c0.116,0.254,0.236,0.5,0.347,0.752
		c0.104,0.236,0.197,0.479,0.297,0.719C38.982,38.287,38.76,37.861,38.118,37.973z"/>
	<path fill-rule="evenodd" clip-rule="evenodd" fill="#FFFFFF" d="M35.309,20.012c-0.2,0.085-0.356,0.273-0.524,0.411
		c0.195,0.081,0.393,0.216,0.597,0.229c0.169,0.011,0.382-0.087,0.505-0.21c0.066-0.066,0.029-0.383-0.035-0.409
		C35.691,19.967,35.464,19.945,35.309,20.012z"/>
	<path fill-rule="evenodd" clip-rule="evenodd" fill="#FFFFFF" d="M25.722,33.107c0.025-0.041-0.221-0.252-0.322-0.363
		c-0.219,0.525-0.389,0.93-0.569,1.359C25.611,34.205,25.486,33.477,25.722,33.107z"/>
	<path fill-rule="evenodd" clip-rule="evenodd" fill="#FFFFFF" d="M28.689,12.939c0.016-0.186,0.014-0.376,0.051-0.558
		c0.054-0.258,0.137-0.511,0.212-0.786c-0.237,0-0.534,0-0.82,0c-0.083,0.227-0.231,0.433-0.21,0.619
		c0.027,0.223,0.166,0.455,0.319,0.629C28.322,12.937,28.535,12.912,28.689,12.939z"/>
	<path fill-rule="evenodd" clip-rule="evenodd" fill="#FFFFFF" d="M25.878,7.467c-0.686,0.302-0.943,1.207-0.453,1.955
		C25.57,8.799,25.714,8.175,25.878,7.467z"/>
	<path fill-rule="evenodd" clip-rule="evenodd" fill="#FFFFFF" d="M12.938,11.49c0.061-0.068-0.094-0.469-0.139-0.467
		c-0.338,0.015-0.673,0.092-1.138,0.173c0.218,0.347,0.347,0.554,0.535,0.852C12.475,11.85,12.746,11.704,12.938,11.49z"/>
	<path fill-rule="evenodd" clip-rule="evenodd" fill="#FFFFFF" d="M27.379,10.196c-0.563-0.525-0.782-0.539-1.44-0.114
		c0.109,0.209,0.201,0.381,0.31,0.589C26.614,10.518,26.98,10.364,27.379,10.196z"/>
	<path fill-rule="evenodd" clip-rule="evenodd" fill="#FFFFFF" d="M2.769,11.631c-0.031-0.092-0.062-0.184-0.092-0.275
		c-0.625,0.18-1.25,0.361-1.874,0.54c0.039,0.116,0.077,0.231,0.115,0.345C1.535,12.038,2.152,11.834,2.769,11.631z"/>
	<path fill-rule="evenodd" clip-rule="evenodd" fill="#FFFFFF" d="M4.262,18.625c-0.002,0.021,0,0.035-0.002,0.056
		c0.021,0,0.041,0,0.062,0C4.301,18.662,4.284,18.645,4.262,18.625z"/>
	<path fill-rule="evenodd" clip-rule="evenodd" fill="#FFFFFF" d="M25.958,18.369c0.092,0.094,0.184,0.188,0.275,0.283
		c0.254-0.342,0.51-0.684,0.806-1.08C26.354,17.446,26.042,17.709,25.958,18.369z"/>
	<path fill-rule="evenodd" clip-rule="evenodd" fill="#FFFFFF" d="M22.148,22.068c0.177-0.432,0.063-0.792-0.505-1.041
		c0.099,0.364,0.198,0.73,0.297,1.094C22.009,22.104,22.079,22.086,22.148,22.068z"/>
	<path fill-rule="evenodd" clip-rule="evenodd" fill="#FFFFFF" d="M26.92,20.708c0-0.488,0-0.977,0-1.464
		c-0.091,0.004-0.181,0.008-0.271,0.012c0.036,0.495,0.071,0.99,0.107,1.485C26.81,20.73,26.866,20.719,26.92,20.708z"/>
	<path fill-rule="evenodd" clip-rule="evenodd" fill="#FFFFFF" d="M4.147,0c-0.055,0.052-0.11,0.104-0.165,0.156
		c0.382,0.412,0.764,0.822,1.146,1.234C5.168,1.349,5.208,1.309,5.25,1.268C4.882,0.846,4.515,0.422,4.147,0z"/>
</g>
</symbol>
<symbol id="kkal" viewBox="0 0 60 60.178">
<g>
	<path fill-rule="evenodd" clip-rule="evenodd" fill="#FFFFFF" d="M38.164,48.505c0.149,0.27,0.217,0.584,0.342,0.87
		c0.035,0.08,0.162,0.192,0.213,0.177c0.095-0.029,0.225-0.133,0.236-0.219c0.086-0.707-0.18-1.311-0.586-1.946
		C38.262,47.804,37.928,48.082,38.164,48.505z"/>
	<path fill-rule="evenodd" clip-rule="evenodd" fill="#FFFFFF" d="M44.893,51.72c0.28,0.126,0.561,0.253,0.84,0.378
		c0.056,0.09,0.111,0.181,0.167,0.271c0.126-0.332,0.252-0.663,0.341-0.895c-0.227-0.049-0.227-0.049-0.25-0.854
		c-0.277-0.091-0.56-0.131-0.488,0.291C45.584,51.411,45.398,51.644,44.893,51.72z"/>
	<path fill-rule="evenodd" clip-rule="evenodd" fill="#FFFFFF" d="M48.188,48.593c0,0.379,0,0.758,0,1.179
		c0.072,0.202,0.165,0.471,0.268,0.738c0.017,0.043,0.075,0.094,0.118,0.096c0.051,0.002,0.121-0.029,0.156-0.069
		c0.188-0.213,0.061-0.979-0.155-1.18c-0.108-0.102-0.166-0.273-0.212-0.423c-0.032-0.106-0.006-0.229-0.006-0.345
		C48.301,48.59,48.244,48.591,48.188,48.593z"/>
	<path fill-rule="evenodd" clip-rule="evenodd" fill="#FFFFFF" d="M47.752,51.761c0.329-0.174,0.658-0.348,0.986-0.521
		c-0.451,0.143-0.267-0.368-0.377-0.418c-0.234,0.306-0.441,0.575-0.648,0.845C47.727,51.698,47.739,51.729,47.752,51.761z"/>
	<path fill-rule="evenodd" clip-rule="evenodd" fill="#FFFFFF" d="M40.263,55.044c0.003,0.045,0.007,0.089,0.011,0.133
		c0.186,0.124,0.373,0.248,0.707,0.469c-0.027-0.281-0.008-0.577-0.065-0.592C40.711,55,40.482,55.039,40.263,55.044z"/>
	<path fill-rule="evenodd" clip-rule="evenodd" fill="#FFFFFF" d="M44.869,54.335c0.398-0.131,0.796-0.262,1.193-0.393
		c-0.02-0.059-0.039-0.119-0.059-0.178c-0.403,0.116-0.807,0.233-1.209,0.349C44.82,54.188,44.845,54.262,44.869,54.335z"/>
	<path fill-rule="evenodd" clip-rule="evenodd" fill="#FFFFFF" d="M41.504,55.154c0.309,0.184,0.651,0.095,0.986,0.073
		c0.006-0.062,0.013-0.123,0.02-0.184c-0.33-0.021-0.659-0.042-0.988-0.063C41.516,55.038,41.51,55.096,41.504,55.154z"/>
	<path fill-rule="evenodd" clip-rule="evenodd" fill="#FFFFFF" d="M39.508,52.741c-0.141,0.339-0.25,0.6-0.367,0.876
		c0.504,0.066,0.423-0.404,0.576-0.642C39.732,52.95,39.574,52.813,39.508,52.741z"/>
	<path fill-rule="evenodd" clip-rule="evenodd" fill="#FFFFFF" d="M49.279,12.807c0.43-0.424,0.57-0.966,0.635-1.602
		c-0.291,0.221-0.659,0.231-0.725,0.635c-0.043,0.258-0.164,0.503-0.23,0.759c-0.019,0.071,0.007,0.213,0.049,0.229
		C49.086,12.858,49.227,12.858,49.279,12.807z"/>
	<path fill-rule="evenodd" clip-rule="evenodd" fill="#FFFFFF" d="M52.301,18.479c0.258-0.153,0.516-0.307,0.697-0.415
		c-0.125-0.152-0.125-0.152,0.282-0.7c-0.136-0.206-0.303-0.381-0.478-0.064c-0.207,0.375-0.454,0.433-0.83,0.218
		c0.119,0.23,0.239,0.462,0.359,0.693C52.322,18.301,52.311,18.39,52.301,18.479z"/>
	<path fill-rule="evenodd" clip-rule="evenodd" fill="#FFFFFF" d="M55.146,18.75c0.238-0.042,0.555-0.619,0.518-0.866
		c-0.019-0.125,0.033-0.269,0.082-0.393c0.034-0.087,0.116-0.156,0.178-0.233c-0.039-0.029-0.076-0.057-0.115-0.086
		c-0.199,0.252-0.398,0.504-0.619,0.783c-0.059,0.173-0.139,0.402-0.211,0.632c-0.012,0.037,0.002,0.103,0.027,0.126
		C55.039,18.743,55.102,18.758,55.146,18.75z"/>
	<path fill-rule="evenodd" clip-rule="evenodd" fill="#FFFFFF" d="M54.752,18.746c-0.316,0.08-0.597,0.15-0.876,0.22
		c-0.007,0.028-0.016,0.056-0.023,0.084c0.31,0.057,0.62,0.115,0.931,0.171C54.407,19.08,54.799,18.836,54.752,18.746z"/>
	<path fill-rule="evenodd" clip-rule="evenodd" fill="#FFFFFF" d="M49.087,27.031c-0.038-0.167-0.118-0.324-0.2-0.476
		c-0.009-0.018-0.152,0.005-0.193,0.048c-0.029,0.03-0.006,0.13,0.02,0.19c0.054,0.135,0.123,0.264,0.213,0.451
		C48.986,27.168,49.099,27.085,49.087,27.031z"/>
	<path fill-rule="evenodd" clip-rule="evenodd" fill="#FFFFFF" d="M47.87,15.629c0.024-0.008-0.01-0.183-0.016-0.265
		c-0.272,0.151-0.481,0.267-0.704,0.39C47.449,16.063,47.643,15.707,47.87,15.629z"/>
	<path fill-rule="evenodd" clip-rule="evenodd" fill="#FFFFFF" d="M46.762,23.739c-0.028,0.384-0.057,0.768-0.085,1.152
		c0.044,0.004,0.089,0.007,0.134,0.011c0.031-0.388,0.062-0.776,0.092-1.164C46.855,23.738,46.809,23.738,46.762,23.739z"/>
	<path fill-rule="evenodd" clip-rule="evenodd" fill="#FFFFFF" d="M56.161,16.009c-0.015-0.306-0.028-0.612-0.043-0.918
		c-0.042,0.004-0.083,0.008-0.124,0.012c0.023,0.306,0.049,0.611,0.073,0.917C56.098,16.016,56.129,16.013,56.161,16.009z"/>
	<path fill-rule="evenodd" clip-rule="evenodd" fill="#FFFFFF" d="M29.991,18.645c1.612,0,3.124-0.623,4.253-1.754
		c1.139-1.141,1.791-2.702,1.789-4.282c-0.006-3.307-2.654-5.997-5.901-5.997l-0.119,0.002c-1.659-0.042-3.212,0.594-4.375,1.796
		c-1.099,1.135-1.702,2.621-1.7,4.185c0.004,3.206,2.502,5.859,5.688,6.041C29.748,18.641,29.872,18.616,29.991,18.645z
		 M27.467,12.59c-0.001-0.632,0.258-1.261,0.707-1.727c0.451-0.466,1.043-0.723,1.664-0.723l0.152,0.004l0.142-0.003
		c1.283,0,2.369,1.133,2.372,2.474c0,0.64-0.282,1.306-0.758,1.782c-0.327,0.328-0.896,0.719-1.755,0.719
		c-0.055,0-0.11-0.001-0.166-0.005C28.504,15.035,27.469,13.928,27.467,12.59z"/>
	<path fill-rule="evenodd" clip-rule="evenodd" fill="#FFFFFF" d="M6.88,50.749c-0.13,0.573-0.329,1.126-0.354,1.688
		c-0.017,0.378,0.213,0.767,0.333,1.15c0.237-0.24,0.474-0.48,0.731-0.74c0.58,0.544,1.236,1.157,1.892,1.771
		C9.153,52.95,8.523,51.536,6.88,50.749z"/>
	<path fill-rule="evenodd" clip-rule="evenodd" fill="#FFFFFF" d="M24.725,40.104c0,0.872,0,1.744,0,2.709
		c0.166,0.465,0.379,1.087,0.616,1.7c0.038,0.099,0.175,0.217,0.271,0.222c0.119,0.005,0.278-0.067,0.359-0.159
		c0.435-0.489,0.141-2.25-0.356-2.713c-0.251-0.234-0.382-0.628-0.487-0.974c-0.074-0.243-0.015-0.528-0.015-0.794
		C24.983,40.098,24.854,40.102,24.725,40.104z"/>
	<path fill-rule="evenodd" clip-rule="evenodd" fill="#FFFFFF" d="M6.793,16.1c-0.145-0.206-0.523-0.301-0.806-0.329
		c-0.114-0.011-0.306,0.276-0.381,0.461c-0.243,0.595-0.447,1.207-0.726,1.977c0.543-0.148,0.903-0.234,1.257-0.344
		C6.83,17.651,7.215,16.696,6.793,16.1z"/>
	<path fill-rule="evenodd" clip-rule="evenodd" fill="#FFFFFF" d="M3.637,33.25C2.6,33.581,3.022,32.403,2.77,32.291
		c-0.539,0.702-1.016,1.322-1.492,1.942c0.03,0.072,0.061,0.145,0.092,0.217C2.125,34.05,2.881,33.65,3.637,33.25z"/>
	<path fill-rule="evenodd" clip-rule="evenodd" fill="#FFFFFF" d="M3.438,58.775c-0.049-0.021-0.316,0.268-0.332,0.428
		c-0.011,0.114,0.209,0.288,0.36,0.375c0.343,0.195,0.708,0.353,1.215,0.6c0-0.264,0.1-0.629-0.019-0.725
		C4.302,59.163,3.865,58.961,3.438,58.775z"/>
	<path fill-rule="evenodd" clip-rule="evenodd" fill="#FFFFFF" d="M19.457,30.759c-0.298,0.127-0.529,0.405-0.779,0.61
		c0.291,0.12,0.583,0.32,0.887,0.339c0.25,0.016,0.566-0.13,0.748-0.311c0.1-0.099,0.042-0.569-0.053-0.608
		C20.021,30.693,19.686,30.661,19.457,30.759z"/>
	<path fill-rule="evenodd" clip-rule="evenodd" fill="#FFFFFF" d="M21.635,35.389c0.566,0.61,1.133,1.219,1.699,1.829
		c0.061-0.06,0.12-0.12,0.181-0.18c-0.545-0.627-1.09-1.254-1.636-1.881C21.798,35.233,21.716,35.311,21.635,35.389z"/>
	<path fill-rule="evenodd" clip-rule="evenodd" fill="#FFFFFF" d="M9.84,30.098c-0.02-0.018-0.036-0.033-0.055-0.05
		c-0.006,0.019-0.01,0.037-0.016,0.056C9.792,30.102,9.818,30.1,9.84,30.098z"/>
	<path fill-rule="evenodd" clip-rule="evenodd" fill="#FFFFFF" d="M59.852,52.693c-0.578-2.218-1.171-4.432-1.764-6.646
		c-0.215-0.8-0.428-1.601-0.643-2.401c-0.174,0.583-0.427,1.106-1.389,0.981c0.322-0.767,0.63-1.5,1.009-2.405
		c-0.537-2.023-1.071-4.048-1.605-6.072c-0.349-1.319-0.696-2.637-1.046-3.956c-0.115-0.104-0.222-0.231-0.27-0.34
		c-0.376-0.86-0.579-1.807-1.03-2.619c-0.4-0.721-0.252-1.301,0.011-1.897c-0.605-2.282-1.209-4.564-1.83-6.841
		c-0.117-0.432-0.293-0.821-0.505-1.176c0.264,0.096,0.527,0.193,0.792,0.29c0.018-0.05,0.035-0.1,0.055-0.15
		c-0.33-0.135-0.659-0.269-0.988-0.404c-0.003,0.008-0.006,0.015-0.008,0.023c-0.774-1.125-2.018-1.788-3.496-1.788l-0.073,0
		c-0.812,0.012-1.622,0.013-2.431,0.015c-0.514,0.975-0.621,2.077-0.131,3.435c0.012,0.033,0.01,0.063,0.02,0.095
		c0.866-0.002,1.731-0.003,2.615-0.017c0.359,0,0.609,0.101,0.745,0.603c0.098,0.36,0.191,0.721,0.289,1.081
		c-0.062,0.035-0.12,0.077-0.183,0.109c-0.367,0.189-0.597,0.052-0.62-0.365c-0.004-0.073-0.008-0.146-0.011-0.208
		c-0.117-0.035-0.23-0.109-0.3-0.08c-0.102,0.042-0.173,0.161-0.257,0.246c0.279,0.269,0.192,0.553,0.043,0.844
		c-0.012,0.025,0.026,0.078,0.066,0.187c0.066-0.176,0.105-0.277,0.171-0.453c0.106,0.164,0.175,0.277,0.249,0.385
		c0.143,0.203,0.425,0.208,0.498-0.008c0.081-0.246,0.217-0.394,0.388-0.487c0.663,2.453,1.318,4.908,1.97,7.364l0.344,1.3
		c0.505,1.904,1.008,3.808,1.51,5.712c0.541,2.049,1.082,4.098,1.625,6.146c0.334,1.255,0.67,2.51,1.006,3.764
		c0.592,2.206,1.184,4.411,1.758,6.619c0.065,0.254,0.031,0.489-0.012,0.541c-1.16,0.457-2.091,0.738-2.93,0.884
		c-2.033,0.355-4.174,0.648-6.361,0.87c-1.445,0.149-2.947,0.217-4.401,0.284l-1.169,0.055c-0.756,0.037-1.512,0.056-2.268,0.077
		c-0.478,0.012-0.955,0.025-1.437,0.042c-0.212,0.007-0.397,0.05-0.554,0.103H22.553c-0.15-0.052-0.33-0.093-0.533-0.102
		c-0.451-0.022-0.901-0.04-1.352-0.058c-0.459-0.019-0.919-0.037-1.379-0.06l-0.906-0.042c-1.063-0.05-2.128-0.1-3.19-0.179
		l-0.385-0.028c-1.429-0.106-2.905-0.216-4.319-0.408c-1.695-0.232-3.506-0.534-5.867-0.977c-0.717-0.134-0.976-0.318-1.092-0.489
		v-0.492c0.016-0.044,0.031-0.09,0.043-0.139l0.383-1.489c0.154-0.601,0.311-1.2,0.467-1.799c-0.164-0.032-0.328-0.065-0.49-0.098
		c0.23-0.687,0.463-1.101,0.854-1.286c0.374-1.403,0.75-2.806,1.126-4.208c0.363-1.35,0.726-2.699,1.086-4.049
		c0.343-1.287,0.683-2.575,1.022-3.862c0.333-1.26,0.665-2.52,1.001-3.78c0.248-0.929,0.498-1.858,0.748-2.787
		c-0.398,0.037-0.905,0.083-1.69,0.155c0.366-0.54,0.547-0.805,0.741-1.09c0.33,0.302,0.633,0.578,0.965,0.88
		c0.063-0.234,0.125-0.467,0.188-0.701c0.625-2.314,1.27-4.707,1.875-7.074c0.371-1.452,0.371-1.452,1.588-1.452l0.23,0.003
		c1.656,0.037,3.314,0.027,4.972,0.018c0.67-0.003,1.341-0.007,2.009-0.008c0.152,0,0.306-0.011,0.469-0.026l2.064-0.149
		c-0.924-1.05-0.937-2.623-1.906-3.655c-0.178-0.188-0.066-0.646-0.089-0.979c0.091-0.023,0.183-0.047,0.272-0.07
		c-0.57-1.387-0.771-2.833-0.582-4.326c-0.115-0.024-0.231-0.049-0.348-0.074c0-0.46,0-0.92,0-1.379
		c0.194,0.088,0.389,0.176,0.583,0.265c0.833-3.284,2.843-5.434,6.152-6.552c0.308-0.104,0.656-0.186,1.026-0.271
		c0.121-0.028,0.244-0.057,0.366-0.087h2.404c0.106,0.036,0.219,0.063,0.335,0.081c2.469,0.345,4.462,1.534,5.923,3.534
		c1.858,2.543,2.308,5.34,1.335,8.313c-0.198,0.606-0.501,1.223-0.821,1.876c-0.165,0.335-0.329,0.67-0.482,1.008l-1.134,2.495
		l2.926,0.004c-0.395-0.351-0.92-0.587-1.641-0.655c0.065-0.599-0.021-1.281,0.247-1.768c0.183-0.333,0.86-0.392,1.429-0.618
		c0.209,0.238,0.449,0.514,0.69,0.787c1.348,1.518,2.636,1.388,3.488-0.335c0.072,0.076,0.139,0.169,0.198,0.283
		c0.128-0.094,0.311-0.159,0.35-0.273c0.051-0.144-0.004-0.332-0.039-0.495c-0.024-0.112-0.093-0.214-0.141-0.32
		c0.019-0.044,0.038-0.087,0.057-0.131c-0.056,0-0.111,0.001-0.167,0.001l-1.885-0.003c0.101-0.246,0.194-0.498,0.279-0.758
		c1.326-4.055,0.69-8.028-1.839-11.491c-1.789-2.448-4.25-4.058-7.143-4.724c-0.008,0.08-0.018,0.16-0.025,0.24
		c-1.422,0.095-2.879,0.472-4.196-0.312c0.01-0.089,0.019-0.178,0.028-0.267h-0.613l-0.214,0.055
		c-0.172,0.043-0.345,0.084-0.519,0.124c-0.327,0.076-0.666,0.163-1.014,0.264c0.039,0.492,0.04,1.213,0.107,1.917
		c-0.784-0.519-1.375-0.91-1.883-1.246c-3.689,1.681-6.127,4.664-7.08,8.712c-0.606,2.568-0.404,5.118,0.574,7.489
		c-1.482,0.007-2.965,0.013-4.448-0.02l-0.308-0.003c-3.312,0-4.344,1.506-5.008,4.108c-0.138,0.539-0.283,1.082-0.424,1.623
		c0.043,0.639,0.133,1.283,0.221,2.107c-0.26,0-0.515,0-0.773,0c-0.295,1.108-0.594,2.213-0.886,3.298
		c-0.319,1.185-0.639,2.369-0.954,3.554c-0.336,1.262-0.67,2.525-1.004,3.788c-0.338,1.285-0.678,2.569-1.021,3.854
		c-0.359,1.348-0.722,2.695-1.083,4.043c-0.102,0.38-0.203,0.759-0.305,1.14c0.183,0.344,0.195,0.938,0.023,1.834
		c-0.104-0.252-0.207-0.504-0.313-0.756c-0.233,0.874-0.469,1.748-0.701,2.621c-0.195,0.733-0.383,1.469-0.571,2.204
		c0.245,0.227,0.476,0.438,0.705,0.649c-0.069,0.077-0.139,0.154-0.208,0.231c-0.24-0.03-0.477-0.066-0.689-0.135l-0.181,0.704
		L0,52.444v2.299l0.093,0.275c0.552,1.632,1.855,2.653,3.876,3.032c2.423,0.455,4.285,0.764,6.043,1.006
		c1.521,0.206,3.053,0.32,4.535,0.431l0.383,0.028c1.094,0.082,2.191,0.134,3.289,0.185l0.896,0.043
		c0.471,0.022,0.941,0.042,1.412,0.061c0.323,0.013,0.646,0.026,0.973,0.04l0.253,0.122H38.1l0.244-0.117
		c0.349-0.011,0.697-0.02,1.045-0.028c0.782-0.021,1.564-0.042,2.348-0.08l1.157-0.055c1.503-0.069,3.056-0.14,4.599-0.299
		c0.224-0.022,0.445-0.049,0.668-0.073c0.406-0.765,1.195-0.317,1.96-0.233c0.242-0.031,0.487-0.06,0.728-0.092
		c0.145-0.068,0.282-0.174,0.41-0.33c-0.359-0.437-0.771-0.938-1.183-1.438c0.052-0.114,0.103-0.226,0.155-0.339
		c0.372,0.191,0.791,0.326,1.107,0.586c0.452,0.373,1.008,0.771,1.191,1.275c0.529-0.083,1.054-0.169,1.571-0.26
		c1.081-0.188,2.23-0.53,3.619-1.079C59.811,56.579,60.29,54.384,59.852,52.693z M43.631,17.656c0.002,0.123,0.004,0.25,0.007,0.358
		c-0.062,0.014-0.114,0.009-0.161-0.004C43.528,17.893,43.579,17.774,43.631,17.656z M41.651,9.969
		C41.2,9.43,40.75,8.892,40.217,8.254C41.58,8.081,41.897,8.41,41.651,9.969z M4.707,57.057c1.061,0,1.969,0,3.07,0
		C6.373,57.861,5.335,57.875,4.707,57.057z M29.575,57.604c-0.007-0.102-0.015-0.203-0.022-0.306
		c0.506-0.011,1.032-0.104,1.501,0.022c0.131,0.035,0.088,0.716,0.149,1.362C30.435,58.173,30.005,57.889,29.575,57.604z
		 M34.676,57.718c-0.77,0.051-1.557,0.255-2.27-0.169c0.014-0.133,0.027-0.266,0.041-0.398c0.758,0.048,1.516,0.097,2.273,0.145
		C34.705,57.437,34.691,57.577,34.676,57.718z"/>
</g>		
</symbol>

<symbol id='volume' viewBox="0 0 138 171.6">
	<path class="st0" d="M116.5,3L50.1,55.8c-4.8-2.6-10.3-4-16.1-4c-18.8,0-34,15.2-34,34s15.2,34,34,34c5.8,0,11.3-1.5,16.1-4
		l66.4,52.9c8.7,6.9,21.5,0.7,21.5-10.4v-145C138,2.2,125.2-4,116.5,3z"/>
</symbol>

<symbol id='beef' viewBox="0 0 44 39.212">
<g>
	<path fill="#E35028" d="M40.158,13.595c-0.365-0.693-0.732-1.389-1.098-2.089c1.488-1.032,2.652-2.173,3.48-3.356
		c-0.433-0.464-0.864-0.93-1.296-1.394c0.071-0.068,0.142-0.135,0.212-0.202c0.405,0.466,0.811,0.933,1.216,1.399
		c1.569-2.361,1.788-4.88,0.437-7.056l-0.281-0.451l-0.873,0.918c-0.351,0.37-0.687,0.726-1.032,1.072
		c-0.261,0.26-0.522,0.504-0.784,0.74c-0.006,0.053-0.018,0.097-0.041,0.119c-0.088,0.087-0.211,0.162-0.342,0.211
		c-3.408,2.896-7.048,3.787-11.621,2.893c-1.215-0.237-2.563-0.353-4.123-0.353c-1.438,0-2.914,0.096-4.341,0.189
		c-1.389,0.09-2.825,0.184-4.216,0.188c-0.358,0-0.723,0.011-1.089,0.02c0.013,0.042,0.031,0.082,0.043,0.124
		c0.044,0.155-0.03,0.438-0.148,0.519c-0.115,0.078-0.417,0.038-0.532-0.066c-0.2-0.183-0.355-0.365-0.468-0.557
		c-0.076,0-0.152,0.004-0.228,0.004c-0.968,0-2.089-0.051-3.072-0.435C9.028,5.668,8.135,5.155,7.263,4.596
		c0.096-0.111,0.17-0.235,0.212-0.375C7.521,4.073,7.437,3.75,7.338,3.714C7.096,3.628,6.694,3.771,6.353,3.998
		C6.071,3.806,5.79,3.613,5.513,3.421c-0.438-0.304-0.88-0.6-1.322-0.895C4.079,2.644,3.943,2.734,3.789,2.782
		c-0.307,0.095-0.62,0.171-1.09,0.298C2.871,2.604,3.01,2.2,3.152,1.818C2.922,1.653,2.675,1.469,2.385,1.253
		c-0.306-0.228-0.657-0.49-1.081-0.799L0.682,0L0.651,0.77C0.453,5.66,2.096,9.035,5.814,11.351
		c-0.349,0.453-0.701,0.882-1.042,1.299c-0.914,1.115-1.776,2.168-2.342,3.377c-1.503,3.21-2.152,4.841-1.61,5.917
		c0.498,0.988,1.82,1.257,4.221,1.744c0.381,0.077,0.792,0.16,1.23,0.253c1.222,0.257,1.723,0.563,2.107,1.772
		c1.494,4.707,4.339,8.592,8.457,11.545c1.806,1.296,3.62,1.953,5.392,1.953c1.625,0,3.15-0.564,4.542-1.665
		c-0.257-0.102-0.514-0.212-0.77-0.276c-0.171-0.043-0.166-0.771-0.258-1.268c0.752,0.161,1.303,0.28,1.902,0.407
		c0.051,0.077,0.107,0.167,0.167,0.26c0.274-0.238,0.547-0.48,0.818-0.725c-0.122,0.469-0.234,0.902-0.323,1.245
		c0.49-0.225,1.039-0.475,1.59-0.729c-0.138-0.481-0.437-0.819-0.789-0.956c2.003-1.851,3.842-3.873,5.003-6.181
		c1.035-2.056,1.94-3.844,3.43-4.967c0.033,0.01,0.06,0.019,0.095,0.029c-0.022-0.025-0.035-0.037-0.056-0.06
		c0.937-0.694,2.104-1.127,3.679-1.198c1.229-0.056,1.798-0.595,2.059-1.037c0.412-0.699,0.358-1.653-0.154-2.684
		C42.193,17.458,41.159,15.495,40.158,13.595z M3.724,5.456l6.922,3.803c-0.125,0.04-0.243,0.08-0.357,0.118
		C9.649,9.589,9.183,9.753,8.793,9.682C6.348,9.246,4.716,7.894,3.724,5.456z M6.114,12.583c0.302,0.276,0.578,0.526,0.884,0.806
		c-0.354,0.032-0.808,0.073-1.526,0.139C5.789,13.061,5.946,12.83,6.114,12.583z M3.161,20.815c0.678-2.413,1.51-4.372,2.934-5.935
		c-0.162,0.337-0.303,0.646-0.08,1.046c0.21,0.379,0.305,0.82,0.48,1.221c0.049,0.113,0.228,0.271,0.299,0.249
		c0.133-0.041,0.317-0.187,0.332-0.306c0.112-0.924-0.211-1.724-0.715-2.549c0.5-0.497,1.064-0.954,1.72-1.365l-0.43,4.689
		c0.27-0.183,0.66-0.253,1.188-0.194c-0.57,0.348-0.567,1.261-1.291,1.326L7.35,21.691L3.161,20.815z M7.721,20.954
		c0.599-0.104,1.03-0.203,1.464-0.223c0.057-0.003,0.256,0.514,0.178,0.6c-0.248,0.276-0.596,0.463-0.955,0.719
		C8.167,21.666,8.002,21.401,7.721,20.954z M27.728,33.825c0.107-0.262,0.183-0.543,0.195-0.792
		c0.052-0.977,0.052-0.977-0.669-2.022c0.054,0.544,0.146,1.083,0.322,1.596c0.151,0.441-0.007,0.938-0.434,1.073
		c-0.395,0.128-0.784,0.721-0.632,1.067c0.01,0.021,0.023,0.042,0.033,0.063c-0.202,0.158-0.399,0.318-0.609,0.475
		c-1.395,1.038-2.583,1.521-3.738,1.521c0,0,0,0,0,0c-1.04,0-2.127-0.381-3.468-1.217c-0.135,0-0.271,0-0.406,0
		c-0.016-0.082-0.032-0.162-0.047-0.244c0.019-0.004,0.038-0.009,0.057-0.014c-0.041-0.026-0.079-0.049-0.121-0.077
		c-1.203-0.813-2.289-1.762-3.252-2.811c0.103,0.035,0.198,0.067,0.293,0.096c0.392,0.118,0.764-0.164,0.636-0.521
		c-0.309-0.854,0.095-1.402,0.79-1.938c-0.427-0.293-0.689-0.273-0.828,0.232c-0.077,0.286-0.193,0.561-0.314,0.83
		c-0.281,0.624-0.72,0.681-1.18,0.164c-0.08-0.092-0.159-0.182-0.228-0.261c-0.088,0.035-0.183,0.058-0.265,0.083
		c-1.343-1.755-2.368-3.733-3.048-5.826c0.405,0.182,0.844,0.089,1.275,0.061c0.009-0.086,0.018-0.172,0.028-0.258
		c-0.463-0.03-0.925-0.061-1.387-0.089c-0.001,0.011-0.002,0.021-0.003,0.031c-1.01-3.261-1.178-6.786-0.349-10.179
		c-0.78-0.028-1.563-0.029-2.342-0.177c0.787,0,1.575,0.033,2.358-0.009c0.009,0,0.018-0.002,0.027-0.002
		c0.025-0.099,0.041-0.199,0.068-0.297c0.292-1.064,0.769-2.245,1.539-3.248c-0.209-1.098-0.419-2.202-0.628-3.297
		c0.097-0.045,0.193-0.091,0.29-0.136c0.135,0.261,0.256,0.531,0.407,0.782c0.144,0.238,0.318,0.458,0.479,0.685
		c0.227-0.213,0.502-0.394,0.667-0.647c0.171-0.263,0.236-0.595,0.394-1.025c0.237,0.53,0.417,0.931,0.579,1.295
		c-0.397,0.339-0.427,0.552-0.314,0.718c0.58-0.314,1.241-0.546,2.006-0.653c2.378-0.331,4.765-0.499,7.094-0.499
		c1.411,0,2.811,0.063,4.164,0.185c1.142,0.104,2.145,0.432,3.028,0.924c-0.034,0.165,0.07,0.344,0.333,0.773
		c0.104-0.195,0.18-0.339,0.229-0.455c1.664,1.153,2.767,3.057,3.199,5.604c0.168,0.986,0.239,1.988,0.303,2.872
		c0.026,0.365,0.05,0.705,0.077,0.973C34.347,25.087,32.178,29.878,27.728,33.825z M33.852,9.41l7.091-3.355
		c-0.688,1.948-2.111,3.153-4.33,3.672l-0.395,0.096c-0.438,0.111-0.891,0.226-1.279,0.226C34.574,10.048,34.171,9.964,33.852,9.41z
		 M37.304,22.299c-0.05-0.147-0.099-0.296-0.148-0.443c0.804-0.231,1.606-0.464,2.41-0.696c0.039,0.119,0.078,0.237,0.119,0.355
		C38.891,21.776,38.097,22.037,37.304,22.299z M36.964,21.748l-0.854-8.54c1.001,0.591,1.79,1.29,2.442,2.104
		c-0.039-0.662,0.475-0.591,0.986-0.422c0.047,1.605,0.047,1.605,0.5,1.704c-0.074,0.195-0.164,0.43-0.26,0.68
		c0.496,1.024,0.891,2.184,1.254,3.494L36.964,21.748z"/>
	<path fill="#E35028" d="M19.406,4.425c0.239,0.177,0.443,0.399,0.664,0.602c0.168-0.227,0.336-0.455,0.442-0.596
		c-0.841-1.107-1.609-2.118-2.377-3.129c-0.069,0.018-0.138,0.036-0.207,0.053c0.014,0.204-0.054,0.483,0.054,0.598
		C18.653,2.667,18.571,3.809,19.406,4.425z"/>
	<path fill="#E35028" d="M10.975,34.778c-0.079,0.35-0.201,0.688-0.216,1.029c-0.01,0.23,0.13,0.469,0.203,0.702
		c0.145-0.147,0.29-0.292,0.446-0.452c0.354,0.332,0.754,0.707,1.154,1.082C12.362,36.121,11.978,35.258,10.975,34.778z"/>
	<path fill="#E35028" d="M33.199,5.524c-0.323-0.064-0.643-0.155-0.969-0.185c-0.267-0.024-0.518,0.027-0.512-0.379
		c0.006-0.405-0.244-0.428-0.568-0.32c-0.555,0.186-0.789,0.514-0.533,1.168C31.443,4.935,32.285,5.909,33.199,5.524z"/>
	<path fill="#E35028" d="M22.787,9.299c-0.089-0.125-0.319-0.184-0.492-0.201c-0.069-0.007-0.187,0.168-0.233,0.281
		c-0.148,0.363-0.273,0.736-0.443,1.207c0.332-0.09,0.551-0.143,0.767-0.21C22.809,10.246,23.044,9.663,22.787,9.299z"/>
	<path fill="#E35028" d="M29.195,11.368c-0.457,0.949-0.384,1.467,0.188,1.991c0.08,0.073,0.293,0.102,0.374,0.047
		c0.083-0.057,0.136-0.256,0.104-0.366c-0.086-0.303-0.221-0.591-0.338-0.885C29.436,11.943,29.347,11.733,29.195,11.368z"/>
	<path fill="#E35028" d="M28.314,37.874c-0.457,0.373-0.378,0.809,0.156,1.048c0.336-0.492,0.67-0.985,1.004-1.479
		c-0.051-0.043-0.103-0.086-0.154-0.13C28.982,37.495,28.607,37.635,28.314,37.874z"/>
	<path fill="#E35028" d="M34.806,31.399c0.163,0.148,0.33,0.422,0.488,0.416c0.205-0.006,0.403-0.232,0.747-0.459
		c-0.3-0.262-0.544-0.557-0.616-0.52C35.186,30.958,35.008,31.202,34.806,31.399z"/>
	<path fill="#E35028" d="M30.24,5.152c-0.539-0.444-1.014-0.834-1.563-1.287C28.648,4.547,29.625,5.354,30.24,5.152z"/>
	<path fill="#E35028" d="M37.614,21.56c0.131-0.564,0.261-1.128,0.41-1.77C37.404,20.063,37.17,20.883,37.614,21.56z"/>
	<path fill="#E35028" d="M23.386,34.294c-0.671,0-1.226,0-1.873,0C21.897,34.792,22.53,34.784,23.386,34.294z"/>
	<path fill="#E35028" d="M19.415,26.608c0.106,0.228,0.214,0.451,0.314,0.68c0.094,0.213,0.179,0.433,0.269,0.649
		C20.197,26.892,19.998,26.507,19.415,26.608z"/>
	<path fill="#E35028" d="M20.738,35.344c-0.03-0.013-0.193,0.163-0.202,0.259c-0.007,0.072,0.127,0.178,0.22,0.23
		c0.209,0.119,0.432,0.215,0.741,0.366c0-0.161,0.061-0.384-0.011-0.443C21.266,35.58,21,35.456,20.738,35.344z"/>
	<path fill="#E35028" d="M8.55,31.523c0.042-0.046,0.084-0.093,0.127-0.14c-0.3-0.276-0.6-0.553-1.004-0.924
		C7.571,31.394,8.057,31.462,8.55,31.523z"/>
	<path fill="#E35028" d="M17.395,10.737c0.061-0.061,0.026-0.347-0.032-0.371c-0.146-0.059-0.35-0.079-0.491-0.02
		c-0.181,0.078-0.323,0.248-0.475,0.373c0.178,0.074,0.356,0.196,0.541,0.208C17.091,10.936,17.284,10.847,17.395,10.737z"/>
	<path fill="#E35028" d="M38.097,29.659c0.082,0.084,0.166,0.17,0.248,0.256c0.231-0.309,0.462-0.618,0.73-0.977
		C38.455,28.825,38.173,29.062,38.097,29.659z"/>
	<path fill="#E35028" d="M0,6.143c0.249,0.297,0.459,0.549,0.669,0.8C0.784,6.215,0.636,6.062,0,6.143z"/>
	<path fill="#E35028" d="M34.19,32.065c0.09,0.33,0.18,0.66,0.269,0.99c0.063-0.015,0.127-0.031,0.189-0.048
		C34.808,32.62,34.705,32.29,34.19,32.065z"/>
	<path fill="#E35028" d="M19.35,14.179c-0.333-0.382-0.665-0.765-0.999-1.148c-0.049,0.047-0.099,0.095-0.148,0.143
		c0.345,0.372,0.691,0.744,1.036,1.116C19.276,14.252,19.313,14.215,19.35,14.179z"/>
	<path fill="#E35028" d="M28.664,5.764c0.111-0.165,0.252-0.318,0.315-0.499c0.024-0.07-0.127-0.202-0.284-0.43
		c-0.148,0.304-0.271,0.472-0.301,0.656C28.38,5.564,28.568,5.672,28.664,5.764z"/>
	<ellipse fill="#E35028" cx="18.219" cy="20.872" rx="2.027" ry="1.834"/>
	<path fill="#E35028" d="M29.324,20.224c-0.111-0.207-0.209-0.438-0.41-0.638c-0.173-0.214-0.396-0.413-0.678-0.565
		c-0.26-0.166-0.593-0.267-0.908-0.321c-0.328-0.048-0.645-0.032-0.945,0.027c-0.288,0.07-0.566,0.164-0.791,0.301
		c-0.467,0.256-0.797,0.596-1.012,0.929c-0.227,0.314-0.338,0.64-0.396,0.868c-0.042,0.223-0.039,0.361-0.039,0.361
		s0.125-0.041,0.345-0.111c0.189-0.051,0.46-0.123,0.784-0.209c0.309-0.073,0.642-0.152,0.951-0.187
		c0.156-0.03,0.302-0.021,0.438-0.036c0.134,0.011,0.258,0.006,0.369,0.033c0.115,0.016,0.223,0.037,0.34,0.08
		c0.055,0.025,0.115,0.044,0.182,0.057c0.06,0.035,0.119,0.073,0.187,0.102c0.138,0.047,0.261,0.158,0.398,0.236
		c0.144,0.072,0.268,0.186,0.399,0.275c0.12,0.099,0.264,0.176,0.367,0.27c0.104,0.09,0.215,0.164,0.303,0.229
		c0.182,0.126,0.306,0.198,0.306,0.198s0.034-0.13,0.06-0.356c0.017-0.226,0.054-0.558-0.051-0.932
		C29.474,20.646,29.443,20.43,29.324,20.224z"/>
</g>
</symbol>

<symbol id='buns' viewBox="0 0 48 30.317">
<g>
	<path fill="#F9B43B" d="M20.475,5.926l0.494,0.482c0.582,0.569,1.246,0.883,1.869,0.883c0,0,0,0,0,0c0.555,0,1.05-0.256,1.36-0.702
		c0.25-0.359,0.204-0.811,0.155-1.048c-0.075-0.361-0.247-0.635-0.498-0.79c-0.427-0.265-0.852-0.399-1.263-0.399
		c-0.448,0-1.089,0.167-1.652,0.916c0.185-0.029,0.37-0.062,0.552-0.079c0.014,0.091,0.027,0.182,0.042,0.273
		c-0.259,0.021-0.52,0.041-0.78,0.062L20.475,5.926z"/>
	<path fill="#F9B43B" d="M12.994,9.065l-0.699-0.837l-0.605,0.908c-0.037,0.054-0.087,0.112-0.136,0.171
		c-0.243,0.292-0.61,0.734-0.387,1.289c0.173,0.429,0.431,0.801,0.659,1.129c0.079,0.114,0.158,0.227,0.233,0.342l0.342,0.448
		l1.325-0.239l0.16-0.444c0.019-0.052,0.049-0.109,0.078-0.167c0.142-0.29,0.381-0.774,0.1-1.253
		c-0.23-0.394-0.516-0.716-0.792-1.028C13.178,9.279,13.084,9.173,12.994,9.065z"/>
	<path fill="#F9B43B" d="M31.183,10.282l2.492-2.583l-0.654-0.563c-0.055-0.048-0.119-0.113-0.184-0.176
		c-0.295-0.291-0.55-0.541-0.949-0.541l-0.238,0.003l-0.191,0.113c-0.535,0.314-0.982,0.715-1.385,1.099
		c-0.557,0.527-0.113,1.083,0.21,1.488c0.097,0.122,0.21,0.263,0.323,0.41L31.183,10.282z"/>
	<path fill="#F9B43B" d="M16.737,8.547c0.315,0,0.521-0.147,0.861-0.392c0.122-0.087,0.269-0.193,0.436-0.302l0.986-0.647
		l-1.403-1.027c-0.309-0.229-0.572-0.423-0.838-0.599c-0.361-0.012-0.723-0.033-1.084-0.101c0.311,0,0.622,0.004,0.933,0.005
		c-0.068-0.042-0.135-0.085-0.205-0.126l-0.2-0.113h-0.219c-0.404,0-0.64,0.251-0.913,0.543c-0.055,0.058-0.109,0.118-0.155,0.162
		L14.33,6.525L15.196,7.4c0.076,0.078,0.157,0.157,0.235,0.236c0.182-0.143,0.458-0.196,0.838-0.154
		c-0.206,0.125-0.301,0.359-0.419,0.557c0.116,0.107,0.229,0.216,0.353,0.318l0.242,0.19H16.737L16.737,8.547z"/>
	<path fill="#F9B43B" d="M6.683,12.869c-0.062,0.327-0.124,0.659-0.197,0.995l-0.35,1.597h4.374l0.22,0.533l0.102-0.533H28.01
		c-0.071,0.114-0.127,0.251-0.151,0.44c0.08,0.081,0.159,0.162,0.238,0.246c0.164-0.221,0.333-0.447,0.512-0.686h15.08l-0.114-1.772
		c-0.013-0.262-0.027-0.479-0.054-0.694c-0.437-3.416-2.178-6.204-5.325-8.523c-3.564-2.625-8.234-4.07-13.149-4.07
		c-1.776,0-3.563,0.2-5.313,0.594l-0.582,0.157l0.113,0.256c-0.094,0.134-0.17,0.305-0.159,0.505c0.01,0.18,0.083,0.318,0.174,0.425
		l-0.053,0.021l0.108,0.43c0.018,0.069,0.042,0.141,0.068,0.213c0.005,0.016,0.012,0.035,0.019,0.054
		c-0.063-0.118-0.125-0.236-0.186-0.35c-0.083,0.021-0.167,0.044-0.25,0.065c0.009,0.197-0.011,0.41-0.005,0.609
		c0.154-0.045,0.313-0.08,0.47-0.119l0.007,0.506l0.608-0.145c2.134-0.509,4.332-0.687,6.481-0.54l-0.813,0.767l1.225,1.255
		c0.315,0.33,0.643,0.671,1.038,1l0.382,0.3h0.466c0.463,0,0.771-0.212,1.154-0.474c0.115-0.079,0.252-0.172,0.406-0.269
		l1.632-1.016L30.98,3.855c2.099,0.605,4.022,1.534,5.653,2.735c0.16,0.118,0.304,0.24,0.454,0.36
		c-0.555,0.152-1.062,0.897-1.065,0.905l-0.234,0.448l0.268,0.407c0.268,0.403,0.568,0.764,0.859,1.113l0.741,0.899l0.048-0.039
		c-0.192-0.484-0.326-1.001-0.691-1.389c-0.103-0.11-0.038-0.377-0.051-0.571c0.065-0.017,0.132-0.034,0.197-0.051
		c0.381,0.5,0.761,1.001,1.15,1.514l1.051-0.864c0.742,1.066,1.233,2.228,1.47,3.506h-5.209c0.072-0.056,0.143-0.112,0.208-0.166
		c0.076-0.062,0.151-0.126,0.227-0.176l0.931-0.611l-2.454-1.999l-2.379,2.061l0.992,0.573c0.089,0.052,0.178,0.116,0.268,0.179
		c0.063,0.045,0.133,0.092,0.203,0.139h-7.494l1.725-2.227l-1.203-1.258c-0.006,0.087-0.025,0.184-0.061,0.294
		c-0.059,0.187,0.255,0.502,0.415,0.746c0.089,0.137,0.216,0.249,0.419,0.477c-0.878-0.263-0.936-0.307-1.246-0.976
		c-0.193-0.416-0.376-0.838-0.562-1.258L25.188,9.27c-0.051,0.078-0.117,0.156-0.182,0.234c-0.246,0.301-0.583,0.713-0.545,1.253
		c0.037,0.516,0.355,0.891,0.612,1.192c0.069,0.083,0.142,0.164,0.198,0.247l0.441,0.633h-6.942l0.864-0.85
		c0.323-0.313,0.658-0.637,0.963-1.005c0.428-0.517,0.068-1.023-0.194-1.393c-0.088-0.125-0.195-0.274-0.306-0.445l-0.644-0.993
		l-0.699,0.955c-0.123,0.167-0.237,0.321-0.343,0.463c-0.327,0.437-0.584,0.783-0.811,1.176c-0.343,0.596,0.133,1.057,0.418,1.332
		c0.057,0.055,0.114,0.109,0.156,0.156l0.552,0.604h-9.36c0.103-0.527,0.214-1.026,0.374-1.48c0.704-1.993,2.073-3.627,4.309-5.145
		c0.655-0.444,1.36-0.847,2.111-1.207l0.01-0.001l-0.003-0.003c0.771-0.369,1.591-0.692,2.453-0.968l0.422-0.135l-0.495-2.6
		l-0.534,0.166c-2.018,0.624-3.849,1.488-5.442,2.57c-0.71,0.482-1.381,1.011-1.994,1.572l-0.202,0.253l0.055,0.276
		c0.004,0.059,0.012,0.114,0.021,0.166L10.14,6.019C8.951,7.202,8.096,8.479,7.506,9.888c-0.474,0.136-0.948,0.273-1.423,0.409
		c0.034,0.1,0.066,0.2,0.1,0.299c0.396-0.13,0.793-0.261,1.19-0.392c-0.035,0.091-0.081,0.177-0.113,0.27
		C6.983,11.26,6.833,12.063,6.683,12.869z M25.316,11.924c0.099-0.485,1.085-1.1,1.519-0.943c0.096,0.034,0.176,0.342,0.133,0.485
		c-0.154,0.505-0.691,0.831-1.484,0.875C25.438,12.236,25.288,12.062,25.316,11.924z"/>
	<polygon fill="#F9B43B" points="18.757,1.756 18.748,1.759 18.75,1.763 	"/>
	<path fill="#F9B43B" d="M43.872,29.581c0.189,0.301,0.301,0.479,0.463,0.736c0.242-0.171,0.476-0.297,0.643-0.482
		c0.053-0.059-0.082-0.405-0.12-0.404C44.565,29.444,44.274,29.51,43.872,29.581z"/>
	<path fill="#F9B43B" d="M44.658,20.23c-0.769-0.087-1.122,0.218-1.101,0.876C44.285,21.256,44.222,20.497,44.658,20.23z"/>
	<path fill="#F9B43B" d="M34.474,23.045c0.032,0.1,0.066,0.199,0.099,0.298c0.534-0.176,1.068-0.352,1.603-0.528
		c-0.027-0.08-0.054-0.158-0.08-0.237C35.554,22.732,35.013,22.889,34.474,23.045z"/>
	<path fill="#F9B43B" d="M35.953,17.323c-0.173,0.074-0.309,0.236-0.454,0.356c0.17,0.069,0.34,0.187,0.517,0.198
		c0.146,0.009,0.331-0.076,0.437-0.182c0.059-0.059,0.025-0.332-0.03-0.355C36.283,17.284,36.087,17.265,35.953,17.323z"/>
	<path fill="#F9B43B" d="M27.376,21.204c-0.19,0.455-0.338,0.805-0.493,1.176c0.676,0.088,0.566-0.543,0.772-0.861
		C27.677,21.483,27.464,21.3,27.376,21.204z"/>
	<path fill="#F9B43B" d="M29.559,10.574c0.022,0.192,0.144,0.394,0.276,0.545c0.07,0.08,0.254,0.059,0.387,0.083
		c0.014-0.162,0.013-0.326,0.045-0.483c0.047-0.224,0.117-0.442,0.184-0.68c-0.206,0-0.463,0-0.711,0
		C29.667,10.234,29.54,10.413,29.559,10.574z"/>
	<path fill="#F9B43B" d="M27.397,8.156c0.125-0.54,0.25-1.08,0.392-1.692C27.196,6.725,26.974,7.509,27.397,8.156z"/>
	<path fill="#F9B43B" d="M15.946,10.429c0.242-0.172,0.476-0.297,0.643-0.483c0.053-0.059-0.082-0.406-0.12-0.404
		c-0.292,0.013-0.583,0.08-0.985,0.15C15.672,9.993,15.784,10.171,15.946,10.429z"/>
	<path fill="#F9B43B" d="M29.089,8.827c-0.488-0.455-0.678-0.467-1.246-0.099c0.094,0.181,0.174,0.33,0.268,0.51
		C28.427,9.105,28.743,8.972,29.089,8.827z"/>
	<path fill="#F9B43B" d="M0,11.548c0.004,0.059,0.008,0.119,0.013,0.178c0.25,0.167,0.501,0.332,0.95,0.629
		c-0.035-0.377-0.011-0.775-0.087-0.794C0.602,11.487,0.294,11.542,0,11.548z"/>
	<path fill="#F9B43B" d="M9.129,16.17c-0.018-0.016-0.033-0.03-0.051-0.047c-0.002,0.018,0,0.031-0.002,0.047
		C9.094,16.17,9.112,16.17,9.129,16.17z"/>
	<path fill="#F9B43B" d="M1.665,11.694c0.416,0.248,0.875,0.128,1.324,0.099c0.009-0.082,0.018-0.165,0.027-0.247
		c-0.442-0.029-0.885-0.056-1.327-0.084C1.681,11.541,1.673,11.617,1.665,11.694z"/>
	<path fill="#F9B43B" d="M28.691,17.926c0-0.423,0-0.846,0-1.268c-0.078,0.003-0.156,0.006-0.235,0.011
		c0.031,0.429,0.063,0.856,0.094,1.285C28.597,17.945,28.645,17.936,28.691,17.926z"/>
	<path fill="#F9B43B" d="M9.933,1.098C9.615,0.732,9.296,0.366,8.978,0C8.931,0.045,8.883,0.091,8.835,0.136
		c0.331,0.355,0.661,0.711,0.992,1.067C9.862,1.168,9.897,1.134,9.933,1.098z"/>
	<path fill="#F9B43B" d="M46.571,4.442c0,0.226,0,0.451,0,0.676c0.441,0.094,0.885,0.188,1.326,0.282
		C47.932,5.296,47.966,5.193,48,5.09C47.523,4.874,47.048,4.658,46.571,4.442z"/>
	<path fill="#F9B43B" d="M43.439,19.361l-0.075-1.169h-1.171c-0.299,0-0.599,0.01-0.973,0.021c-0.601,0.019-1.198,0.024-1.649-0.029
		c-0.527-0.063-1.008-0.093-1.469-0.093c-0.421,0-0.82,0.033-1.207,0.086h-7.406c-0.137-0.006-0.27-0.009-0.397-0.009l-1.567,0.009
		h-0.071l-1.64,0.01v0.002h-0.35c-1.891,0.008-3.956,0.011-6.364,0.011L6.766,18.192l-0.051,1.195
		c-0.108,2.549,0.884,5.131,2.723,7.084c1.844,1.958,4.374,3.107,6.941,3.152c3.168,0.057,6.348,0.084,9.449,0.084
		c2.593,0,5.21-0.02,7.778-0.059c2.682-0.04,5.315-1.249,7.225-3.316c1.311-1.418,2.185-3.176,2.492-4.994l0.043,0.039l0.082-1.008
		l-0.013,0.001C43.458,19.999,43.459,19.667,43.439,19.361z M26.031,18.768c0.062,0.164,0.095,0.317,0.126,0.472
		c-0.059-0.157-0.123-0.315-0.209-0.471c-0.031-0.058-0.047-0.11-0.051-0.169l-0.01-0.219L26.031,18.768z M38.997,24.638
		c-1.447,1.567-3.426,2.483-5.429,2.514c-5.604,0.085-11.427,0.077-17.145-0.025c-1.899-0.034-3.783-0.896-5.167-2.367
		c-1.085-1.153-1.781-2.583-1.987-4.069l9.831,0.006c2.408,0,4.464-0.004,6.353-0.012v0.002l0.477-0.003
		c0.057-0.001,0.118-0.001,0.176-0.001l0.959,0.006l-0.01-0.012l2.107-0.012c0.25,0,0.469,0.02,0.773,0.07h2.367h1.199h3.194
		l0.095-0.011c0.641-0.144,1.363-0.166,2.197-0.087l0.631,0.056c0.381,0.028,0.824,0.038,1.285,0.027
		C40.714,22.125,40.047,23.5,38.997,24.638z"/>
</g>
</symbol>

<symbol id='salad' viewBox="0 0 38 38.638">
	<g>
		<path fill-rule="evenodd" clip-rule="evenodd" fill="#8BC03F" d="M11.954,35.416c-0.088-0.107-0.19-0.231-0.292-0.355
			c0.013-0.027,0.025-0.055,0.039-0.084c0.092,0.048,0.195,0.081,0.273,0.146c0.113,0.093,0.252,0.192,0.296,0.317
			c0.035,0.102-0.055,0.246-0.092,0.379c-0.422-0.187-0.742-0.097-0.947,0.236c-0.037,0.06-0.013,0.16-0.009,0.24
			c0.01,0.253,0.021,0.506,0.036,0.759c0.007,0.117,0.024,0.233,0.04,0.386c-0.327,0-0.651,0-0.976,0
			c-0.006-0.031-0.012-0.061-0.018-0.092c0.124-0.025,0.248-0.061,0.373-0.071c0.168-0.015,0.288-0.052,0.252-0.263
			c-0.006-0.039,0.051-0.089,0.08-0.134c0.029-0.046,0.093-0.108,0.081-0.134c-0.029-0.06-0.088-0.115-0.147-0.148
			c-0.111-0.061-0.231-0.105-0.349-0.156c0.016-0.031,0.031-0.063,0.046-0.094c0.097,0.037,0.193,0.074,0.392,0.15
			c-0.38-0.403,0.054-0.563,0.12-0.822C11.271,35.202,11.697,35.732,11.954,35.416z"/>
		<path fill-rule="evenodd" clip-rule="evenodd" fill="#8BC03F" d="M18.06,35.646c-0.368,0.283-0.582,0.573-0.418,1.026
			c0.068,0.188-0.129,0.338-0.336,0.275c-0.111-0.034-0.22-0.073-0.381-0.128c0.05,0.156,0.079,0.246,0.128,0.403
			c-0.087-0.053-0.143-0.067-0.147-0.093c-0.056-0.281-0.15-0.523-0.489-0.557c0.012-0.104-0.003-0.224,0.043-0.309
			c0.032-0.059,0.15-0.068,0.25-0.107c0.037,0.041,0.079,0.09,0.121,0.137c0.243,0.274,0.477,0.244,0.625-0.086
			c0.064-0.143,0.126-0.289,0.167-0.439C17.694,35.5,17.833,35.49,18.06,35.646z"/>
		<path fill-rule="evenodd" clip-rule="evenodd" fill="#8BC03F" d="M18.232,29.722c0.017,0.598,0.017,0.598,0.186,0.635
			c-0.066,0.173-0.16,0.419-0.253,0.665c-0.042-0.067-0.083-0.134-0.124-0.201c-0.208-0.094-0.417-0.188-0.625-0.282
			c0.376-0.056,0.514-0.229,0.453-0.6C17.816,29.625,18.026,29.654,18.232,29.722z"/>
		<path fill-rule="evenodd" clip-rule="evenodd" fill="#8BC03F" d="M14.507,33.458c-0.249-0.164-0.387-0.257-0.526-0.349
			c-0.002-0.033-0.005-0.065-0.007-0.099c0.163-0.004,0.334-0.033,0.485,0.007C14.5,33.029,14.487,33.25,14.507,33.458z"/>
		<path fill-rule="evenodd" clip-rule="evenodd" fill="#8BC03F" d="M17.343,32.319c0.3-0.087,0.599-0.173,0.899-0.26
			c0.015,0.044,0.029,0.089,0.044,0.133c-0.296,0.098-0.592,0.194-0.888,0.292C17.38,32.429,17.362,32.375,17.343,32.319z"/>
		<path fill-rule="evenodd" clip-rule="evenodd" fill="#8BC03F" d="M14.909,32.964c0.245,0.015,0.49,0.03,0.735,0.046
			c-0.005,0.046-0.01,0.091-0.015,0.136c-0.249,0.018-0.503,0.084-0.734-0.054C14.9,33.049,14.905,33.006,14.909,32.964z"/>
		<path fill-rule="evenodd" clip-rule="evenodd" fill="#8BC03F" d="M13.139,31.951c0.086-0.207,0.167-0.4,0.273-0.652
			c0.049,0.054,0.167,0.156,0.155,0.174C13.453,31.65,13.513,32,13.139,31.951z"/>
		<path fill-rule="evenodd" clip-rule="evenodd" fill="#8BC03F" d="M17.313,37.575c0.19,0.284,0.38,0.567,0.57,0.851
			c-0.033,0.022-0.065,0.044-0.098,0.066c-0.189-0.279-0.378-0.561-0.568-0.84C17.249,37.626,17.281,37.601,17.313,37.575z"/>
	</g>
	<path fill-rule="evenodd" clip-rule="evenodd" fill="#8BC03F" d="M31.869,31.158c0.033,0.024,0.068,0.051,0.102,0.076
		c0.127-0.145,0.245-0.298,0.346-0.467c-0.039,0.021-0.078,0.05-0.116,0.061C32.09,30.937,31.979,31.048,31.869,31.158z"/>
	<path fill-rule="evenodd" clip-rule="evenodd" fill="#8BC03F" d="M8.549,13.722c0.394,0.195,0.844-0.044,1.04-0.46
		c0.163-0.346,0.373-0.668,0.598-0.981c0.022-0.125,0.045-0.25,0.08-0.369c0.128-0.436,0.482-0.617,0.877-0.399
		c0.424,0.235,0.818,0.548,1.166,0.888c0.431,0.417,0.794,0.903,1.2,1.347c0.342,0.375,0.748,0.405,1.054,0.105
		c0.288-0.284,0.283-0.681-0.055-1.031c-0.683-0.705-1.274-1.465-1.341-2.484c-0.028-0.43,0.004-0.891,0.134-1.299
		c0.296-0.93,1.189-1.231,1.982-0.655c0.425,0.309,0.761,0.747,1.112,1.151c0.258-0.27,0.339-0.663,0.245-1.226
		c-0.143-0.855,0.425-0.782,0.987-0.598c0.082-0.559,0.365-0.93,0.962-1.169c0.345-0.139,0.706-0.247,1.071-0.321
		c0.585-0.12,1.166-0.266,1.742-0.44c-0.416-0.344-0.828-0.685-1.267-1.047c-0.04,0.154-0.082,0.303-0.176,0.657
		c-0.226-0.417-0.362-0.68-0.508-0.938c-0.167-0.296-0.312-0.616-0.519-0.878c-1.25,0.264-2.402,0.748-3.252,1.802
		c-0.061,0.076-0.238,0.105-0.348,0.085c-0.095-0.016-0.185-0.015-0.278-0.026c0.039,0.031,0.085,0.06,0.122,0.093
		c0.03,0.027-0.12,0.379-0.2,0.384c-0.256,0.017-0.52-0.057-0.821-0.103c0.031-0.147,0.058-0.273,0.085-0.402
		c-1.649,0.086-2.958,1.058-3.534,2.757c-0.151,0.442-0.323,0.65-0.826,0.757c-1.43,0.308-2.107,1.377-2.374,2.724
		c-0.061,0.308-0.087,0.616-0.108,0.923c0.241-0.491,0.585-0.902,0.898-0.97c-0.316,0.701-0.61,1.352-0.902,1.998
		c0.006,0.125,0.005,0.25,0.017,0.375C7.604,13.677,8.21,13.555,8.549,13.722z"/>
	<path fill-rule="evenodd" clip-rule="evenodd" fill="#8BC03F" d="M22.9,2.993c-0.074-0.032-0.189-0.082-0.325-0.141
		c-0.155,0.269-0.219,0.728-0.699,0.435c0.081-0.282,0.155-0.536,0.228-0.791c-0.24,0.135-0.484,0.264-0.737,0.373
		c-0.067,0.086-0.126,0.175-0.151,0.273c-0.07,0.258,0.174,0.601,0.294,0.95c-0.468,0.371-0.459-0.427-0.914-0.428
		c0.099,0.458,0.088,0.971,0.318,1.329c0.183,0.284,0.489,0.487,0.788,0.696c0.145-0.048,0.29-0.082,0.434-0.137
		c0-0.689,0-1.341,0-1.983c0.115-0.002,0.229-0.005,0.345-0.008c0,0.237-0.053,0.489,0.013,0.706
		c0.094,0.307,0.211,0.658,0.434,0.865c0.014,0.014,0.026,0.037,0.04,0.053c0.03-0.016,0.062-0.026,0.092-0.042
		c-0.009,0.044-0.019,0.083-0.028,0.125c0.375,0.54,0.567,1.877,0.214,2.276c-0.073,0.081-0.214,0.146-0.32,0.142
		c-0.085-0.005-0.207-0.109-0.241-0.198c-0.014-0.037-0.026-0.073-0.041-0.111c-0.041,0.457-0.043,0.914-0.012,1.371
		c0.059,0.213,0.202,0.369,0.631,0.233c-0.192,0.101-0.385,0.204-0.578,0.306c0.02,0.142,0.033,0.284,0.058,0.425
		c0.077,0.44,0.377,0.668,0.785,0.609c0.391-0.056,0.649-0.405,0.558-0.824c-0.314-1.449,0.213-2.571,1.33-3.456
		c0.882-0.699,1.791-1.367,2.948-1.538c0.958-0.142,1.534,0.333,1.533,1.305c-0.001,0.461-0.116,0.923-0.184,1.383
		c-0.021,0.146-0.066,0.288-0.085,0.433c-0.058,0.408,0.159,0.732,0.533,0.812c0.347,0.073,0.67-0.139,0.79-0.515
		c0.028-0.091,0.054-0.183,0.08-0.275c-0.397-0.022-0.795-0.056-1.191-0.131c0.411,0,0.821,0.008,1.232,0.011
		c0.023-0.072,0.045-0.145,0.076-0.212c0.476-1.039,1.554-1.282,2.351-0.467c0.146,0.15,0.268,0.329,0.395,0.501
		c0.231-0.028,0.469-0.057,0.687-0.081c-0.215-1.125-0.427-2.236-0.639-3.352c-0.526-0.198-1.106-0.302-1.749-0.288
		c-0.1,0.001-0.24-0.095-0.3-0.186c-0.882-1.339-2.163-1.833-3.696-1.665c-0.73,0.08-1.441,0.33-2.183,0.507
		c-0.022-0.078-0.053-0.205-0.094-0.33c-0.313-0.962-1.472-1.329-2.196-0.632c-0.017,0.015-0.035,0.026-0.051,0.042
		c-0.09,0.246-0.171,0.466-0.24,0.657C22.465,1.96,23.237,2.712,22.9,2.993z"/>
	<path fill-rule="evenodd" clip-rule="evenodd" fill="#8BC03F" d="M37.321,13.829c-0.116-0.188-0.125-0.307-0.003-0.494
		c0.471-0.725,0.693-1.529,0.681-2.393c-0.017-1.192-0.313-2.293-0.782-3.332c-0.571,0.045-1.15,0.091-1.748,0.138
		c0.115,0.206,0.227,0.407,0.49,0.88c-0.662-0.208-1.075-0.347-1.488-0.468c0.08,0.122,0.156,0.241,0.242,0.362
		c-0.448,0.19-0.806,0.301-1.123,0.483c-0.866,0.496-1.729,1.003-2.568,1.545c-0.448,0.29-0.51,0.724-0.232,1.061
		c0.256,0.312,0.666,0.32,1.066,0.011c0.971-0.748,2.029-1.332,3.185-1.733c0.526,0.926,0.204,2.042-0.699,2.483
		c-0.517,0.253-0.786,0.675-0.78,1.251c0.008,0.594,0.307,1.001,0.844,1.252c0.202,0.095,0.389,0.224,0.584,0.337
		c-0.02,0.052-0.039,0.102-0.058,0.153c-0.905-0.122-1.812-0.244-2.719-0.368c-0.131-0.018-0.262-0.051-0.394-0.068
		c-0.417-0.055-0.744,0.163-0.809,0.531c-0.066,0.388,0.131,0.718,0.551,0.794c0.801,0.146,1.609,0.25,2.415,0.372
		c0.061,0.009,0.122,0.017,0.198,0.027c-0.771,0.827-0.768,1.094-0.375,2.16c0.277,0.755,0.398,1.568,0.584,2.357
		c0.049,0.207-0.051,0.307-0.254,0.367c-0.985,0.295-1.932,0.217-2.831-0.28c-0.468-0.259-0.915-0.552-1.371-0.832
		c-0.435-0.266-0.823-0.216-1.055,0.141c-0.228,0.352-0.113,0.739,0.315,1.014c0.348,0.225,0.701,0.44,1.057,0.652
		c1.57,0.934,1.678,3.008,0.209,4.085c-0.107,0.079-0.221,0.147-0.313,0.21c-0.708-0.537-1.396-1.061-2.087-1.58
		c-0.128-0.097-0.264-0.186-0.407-0.256c-0.323-0.156-0.674-0.055-0.869,0.229c0.613,0.452,1.016,1.037,1.289,1.712
		c0.653,0.504,1.233,1.086,1.754,1.735c-0.055-0.459-0.027-0.872,0.139-1.121c0.488,1.357,0.938,2.604,1.385,3.848
		c-0.58-0.253-1.074-1.064-1.343-1.9c-0.021,0.045-0.039,0.091-0.067,0.133c-0.105,0.16-0.381,0.273-0.587,0.285
		c-0.285,0.018-0.581-0.068-0.866-0.129c-0.496-0.105-0.99-0.221-1.482-0.342c-0.686-0.17-1.295-0.482-1.834-0.945
		c-0.374-0.322-0.763-0.633-1.168-0.912c-0.354-0.244-0.731-0.162-0.955,0.152c-0.232,0.326-0.154,0.707,0.199,0.979
		c0.256,0.195,0.511,0.391,0.767,0.582c0.412,0.307,0.595,0.695,0.586,1.145c0.785,0,1.505,0,2.347,0
		c-1.023,0.586-1.823,0.691-2.388,0.313c-0.007,0.035-0.005,0.068-0.015,0.105c-0.166,0.648-0.599,1.052-1.225,1.217
		c0.303,0.139,0.604,0.289,0.858,0.495c0.104,0.085,0.017,0.409,0.017,0.645c-0.45-0.22-0.774-0.36-1.08-0.533
		c-0.135-0.077-0.33-0.231-0.32-0.334c0.006-0.062,0.056-0.142,0.111-0.214c-1.379,0.094-2.773-1.07-2.874-2.511
		c-0.024-0.358,0.004-0.721,0.019-1.081c0.015-0.433-0.203-0.733-0.579-0.777c-0.388-0.047-0.712,0.17-0.765,0.593
		c-0.061,0.5-0.056,1.01-0.081,1.571c-1.03-0.095-1.844,0.375-2.471,1.098c-0.017,0.018-0.035,0.033-0.051,0.052
		c0.194,0.29,0.388,0.581,0.583,0.87c-0.089,0.061-0.179,0.121-0.269,0.18c-0.182-0.268-0.365-0.538-0.547-0.807
		c-0.838,0.813-1.847,1.177-3.029,1.229c-0.907,0.04-1.813,0.134-2.719,0.2c-0.046,0.004-0.094-0.01-0.227-0.023
		c0.502-0.516,0.933-1.004,1.412-1.443c0.996-0.913,1.959-1.866,3.047-2.67c-0.209-0.121-0.344-0.164-0.357-0.227
		c-0.079-0.397-0.188-0.766-0.399-1.043c-0.622,0.617-1.272,1.213-1.953,1.783c-2.34,1.963-4.331,4.287-6.387,6.536
		c-0.174,0.19-0.299,0.259-0.528,0.104c-0.253-0.169-0.529-0.305-0.829-0.475c0.961-0.877,1.891-1.732,2.829-2.58
		c1.498-1.354,2.973-2.734,4.508-4.046c0.639-0.547,1.237-1.124,1.803-1.723c-0.116-0.041-0.242-0.075-0.389-0.089
		c0.031-0.288-0.01-0.615,0.119-0.85c0.088-0.159,0.414-0.189,0.688-0.297c0.1,0.114,0.215,0.247,0.332,0.379
		c0.003,0.004,0.006,0.006,0.009,0.01c1.526-1.784,2.771-3.772,3.753-5.962c0.732-1.631,1.487-3.258,2.329-4.834
		c0.576-1.079,1.311-2.075,1.997-3.091c0.296-0.439,0.315-0.838-0.021-1.098c-0.317-0.246-0.729-0.155-1.043,0.229
		c-1.502,1.84-2.532,3.953-3.525,6.087c-0.394,0.848-0.792,1.693-1.189,2.54c-0.056,0.116-0.122,0.227-0.216,0.4
		c-0.233-1.224-0.64-2.301-1.307-3.272c-0.083-0.121-0.166-0.244-0.259-0.357c-0.274-0.337-0.682-0.41-0.989-0.186
		c-0.32,0.235-0.365,0.625-0.113,0.995c0.112,0.167,0.238,0.324,0.343,0.494c0.703,1.141,1.12,2.366,1.02,3.723
		c-0.077,1.036-0.51,1.948-1.186,2.708c-0.879,0.987-1.795,1.947-2.756,2.854c-1.916,1.805-3.874,3.566-5.817,5.348
		c-0.175-0.107-0.328-0.211-0.49-0.299c-0.313-0.173-0.421-0.436-0.353-0.774c0.073-0.358,0.326-0.378,0.639-0.361
		c0.952,0.05,1.629-0.755,1.431-1.672c-0.086-0.399,0.011-0.51,0.428-0.481c0.146,0.008,0.295,0.039,0.438,0.022
		c0.827-0.097,1.362-0.86,1.183-1.677c-0.02-0.09-0.036-0.181-0.057-0.287c0.333-0.033,0.65-0.07,0.969-0.092
		c0.73-0.053,1.219-0.401,1.391-1.005c0.176-0.62-0.042-1.147-0.65-1.578c-1.014-0.718-1.142-2.06-0.275-2.881
		c0.691-0.657,1.896-0.58,2.499,0.159c0.288,0.354,0.657,0.422,0.981,0.184c0.301-0.223,0.363-0.605,0.141-0.966
		c-0.112-0.182-0.241-0.354-0.378-0.518c-1.713-2.034-2.433-4.422-2.558-7.017c-0.115,0.204-0.286,0.368-0.606,0.664
		c-0.497,0.461-1.491,0.78-1.838,0.588c-0.079,0.001-0.156,0.002-0.234,0.003c0.076,0.583,0.183,1.165,0.322,1.742
		c0.025,0.104,0.061,0.206,0.088,0.31c0.196-0.12,0.391-0.238,0.608-0.371c0.152,0.15,0.238,0.352,0.272,0.575
		c0.587,0.038,1.174,0.075,1.761,0.113c-0.014,0.125-0.027,0.249-0.041,0.375c-0.582,0.039-1.175,0.173-1.73-0.02
		c-0.031,0.151-0.083,0.305-0.165,0.458c-0.143-0.051-0.283-0.1-0.425-0.151c0.122,0.385,0.248,0.77,0.366,1.158
		c-2.057,1.356-2.833,3.206-2.094,5.648c-0.83,0.065-1.169,0.639-1.406,1.313c-0.053,0.15-0.116,0.308-0.12,0.464
		c-0.006,0.337-0.198,0.481-0.485,0.587c-0.602,0.221-0.958,0.635-1.038,1.298c-0.023,0.192-0.169,0.451-0.332,0.532
		c-0.923,0.452-1.437,1.221-1.727,2.156c-0.283,0.914-0.101,1.794,0.345,2.651c-0.33,0.251-0.646,0.494-0.963,0.735
		c-1.004,0.764-0.933,1.871,0.166,2.49c1.07,0.604,2.146,1.199,3.219,1.795c1.009,0.561,1.469,0.537,2.356-0.215
		c0.394-0.334,0.747-0.728,1.07-1.133c0.816-1.02,1.819-1.67,3.155-1.751c0.946-0.058,1.893-0.132,2.837-0.219
		c1.621-0.147,3.077-0.67,4.194-1.919c0.179-0.199,0.334-0.42,0.5-0.631c0.06,0.001,0.12,0.002,0.179,0.003
		c0.081,0.124,0.135,0.286,0.247,0.367c0.625,0.452,1.219,0.978,1.905,1.308c2.676,1.283,5.321,0.148,6.37-1.912
		c0.044-0.086,0.255-0.146,0.372-0.127c0.474,0.08,0.936,0.22,1.41,0.293c1.263,0.199,2.363-0.166,3.11-0.893
		c-0.111-0.205-0.217-0.409-0.309-0.617c-0.222-0.505,0.346-1.371,0.921-1.557c0.156-0.05,0.287-0.133,0.393-0.24
		c0.006-0.238-0.002-0.482-0.039-0.735c-0.021-0.149,0.054-0.358,0.156-0.474c0.041-0.045,0.075-0.094,0.114-0.139
		c-0.251-0.739-0.386-1.516-0.462-2.3c0.588,0.853,0.84,1.229,0.941,1.645c0.24-0.388,0.428-0.802,0.526-1.259
		c0.097-0.452,0.11-0.922,0.163-1.413c0.078-0.019,0.185-0.032,0.281-0.072c0.649-0.269,1.314-0.51,1.941-0.823
		c0.459-0.231,0.659-0.672,0.688-1.193c0.063-1.185-0.028-2.352-0.405-3.482c-0.077-0.23-0.008-0.357,0.146-0.517
		C38.057,16.993,38.236,15.315,37.321,13.829z"/>
	<path fill-rule="evenodd" clip-rule="evenodd" fill="#8BC03F" d="M36.016,5.54c-0.343-0.458-0.731-0.842-1.168-1.144
		c0.011,0.199,0.037,0.389,0.125,0.546C35.135,5.232,35.587,5.362,36.016,5.54z"/>
	<path fill-rule="evenodd" clip-rule="evenodd" fill="#8BC03F" d="M34.853,6.136c0.577,0.386,1.094,0.942,1.708,1.085
		c0.159,0.038,0.324,0.051,0.493,0.05c-0.231-0.47-0.493-0.93-0.783-1.377c-0.017-0.026-0.036-0.049-0.054-0.075
		C36.011,6.376,35.297,5.708,34.853,6.136z"/>
	<path fill-rule="evenodd" clip-rule="evenodd" fill="#8BC03F" d="M26.354,14.139c1.049-0.661,1.922-1.513,2.691-2.466
		c0.037-0.542,0.277-0.893,0.731-1.041c0.099-0.295,0.017-0.583-0.239-0.767c-0.318-0.23-0.721-0.174-0.979,0.202
		c-0.992,1.453-2.313,2.54-3.766,3.497c-2.041,1.345-3.647,3.124-5.002,5.14c-0.507,0.753-1.026,1.502-1.487,2.285
		c-0.566,0.961-1.197,1.867-1.856,2.748c0.192-0.025,0.428,0.07,0.718,0.271c-1.012,0.777-1.6,1.574-1.15,2.82
		c0.047,0.131,0.048,0.254,0.013,0.363c0.261-0.214,0.506-0.455,0.749-0.688c0.909-0.869,1.915-1.523,3.023-1.953
		c-0.061-0.205-0.082-0.471-0.043-0.822c0.245,0.227,0.459,0.424,0.662,0.61c0.578-0.174,1.18-0.296,1.814-0.35
		c0.17-0.015,0.355-0.034,0.503-0.109c0.315-0.159,0.411-0.444,0.331-0.78c-0.079-0.327-0.391-0.557-0.773-0.484
		c-0.967,0.182-1.927,0.407-2.888,0.62c-0.113,0.024-0.218,0.081-0.384,0.044c0.428-0.346,0.837-0.717,1.287-1.031
		c1.196-0.838,2.566-1.299,3.938-1.752c1.482-0.49,2.97-0.968,4.453-1.454c0.51-0.167,0.719-0.52,0.564-0.929
		c-0.148-0.39-0.49-0.541-0.96-0.377c-2.058,0.716-4.176,1.269-6.201,2.076c0.012,0.284-0.019,0.634-0.103,1.071
		c-0.119-0.293-0.236-0.587-0.361-0.877c-0.467,0.197-0.93,0.404-1.383,0.637c-0.008,0.004-0.023-0.005-0.074-0.018
		c0.052-0.091,0.096-0.177,0.146-0.259c0.277-0.451,0.572-0.884,0.876-1.308c-0.017-0.038-0.034-0.074-0.052-0.111
		c0.051-0.009,0.093-0.007,0.14-0.01C22.672,17.042,24.326,15.415,26.354,14.139z"/>
	<path fill-rule="evenodd" clip-rule="evenodd" fill="#8BC03F" d="M14.042,27.236c0.131,0.412,0.21,0.66,0.336,1.057
		c0.331-0.242,0.677-0.464,1.036-0.673c-0.104,0.007-0.213,0.002-0.325-0.032C14.785,27.496,14.487,27.386,14.042,27.236z"/>
	<path fill-rule="evenodd" clip-rule="evenodd" fill="#8BC03F" d="M18.505,10.932c0.299-0.299,0.277-0.694-0.095-1.056
		c-0.108-0.106-0.202-0.218-0.291-0.331c-0.146,0.385-0.335,0.88-0.534,1.4C17.894,11.187,18.253,11.185,18.505,10.932z"/>
	<path fill-rule="evenodd" clip-rule="evenodd" fill="#8BC03F" d="M17.674,8.664c0.037,0.616,0.112,0.707,0.363,0.771
		C17.87,9.199,17.748,8.943,17.674,8.664z"/>
	<path fill-rule="evenodd" clip-rule="evenodd" fill="#8BC03F" d="M15.951,24.375c-0.507,0.639-1.04,1.258-1.599,1.854
		c0.451,0.19,0.859-0.029,1.149-0.674C15.674,25.169,15.839,24.779,15.951,24.375z"/>
	<path fill-rule="evenodd" clip-rule="evenodd" fill="#8BC03F" d="M21.84,6.145c0.055-0.078,0.109-0.155,0.164-0.233
		c-0.096-0.077-0.199-0.151-0.303-0.223c-0.1,0.033-0.199,0.064-0.299,0.094C21.545,5.901,21.696,6.026,21.84,6.145z"/>
	<path fill-rule="evenodd" clip-rule="evenodd" fill="#8BC03F" d="M18.692,3.107c-0.41-0.357-0.786-0.753-1.177-1.132
		c0.397,0.564,0.909,1.013,1.361,1.516c0.022,0.025,0.036,0.059,0.057,0.085c0.09-0.019,0.18-0.039,0.27-0.055
		C19.032,3.387,18.859,3.252,18.692,3.107z"/>
	<path fill-rule="evenodd" clip-rule="evenodd" fill="#8BC03F" d="M6.866,9.071C6.701,9.227,6.638,9.49,6.529,9.706
		c0.203-0.004,0.405-0.008,0.624-0.013c0.024,0.477,0.05,1.015,0.076,1.553c0.556-0.856,0.875-1.729,0.496-2.755
		C7.428,8.685,7.111,8.84,6.866,9.071z"/>
	<path fill-rule="evenodd" clip-rule="evenodd" fill="#8BC03F" d="M8.464,16.985c0.094,0.056,0.19,0.097,0.288,0.13
		c0.034-0.164,0.032-0.319,0.009-0.468c-0.086-0.005-0.173-0.011-0.26-0.017C8.489,16.749,8.477,16.866,8.464,16.985z"/>
	<path fill-rule="evenodd" clip-rule="evenodd" fill="#8BC03F" d="M6.967,16.999c0.372,0.132,0.78,0.276,1.195,0.423
		c-0.103-0.324-0.194-0.651-0.281-0.979C7.541,16.65,7.224,16.842,6.967,16.999z"/>
	<path fill-rule="evenodd" clip-rule="evenodd" fill="#8BC03F" d="M5.897,18.334c0.574-0.12,1.148-0.24,1.722-0.358
		c-0.006-0.066-0.014-0.131-0.02-0.197c-0.365-0.102-0.725-0.262-1.095-0.294C5.926,17.437,5.684,17.798,5.897,18.334z"/>
	<path fill-rule="evenodd" clip-rule="evenodd" fill="#8BC03F" d="M15.064,3.727c0.431,0.631,0.927,0.024,1.44,0.14
		C15.998,3.253,15.52,3.225,15.064,3.727z"/>
	<path fill-rule="evenodd" clip-rule="evenodd" fill="#8BC03F" d="M5.476,11.585C5,11.125,4.61,10.746,4.152,10.302
		C4.081,10.917,4.535,11.346,5.476,11.585z"/>
	<path fill-rule="evenodd" clip-rule="evenodd" fill="#8BC03F" d="M2.565,10.558c-0.053,0.045-0.031,0.211-0.002,0.313
		c0.066,0.228,0.158,0.448,0.273,0.767c0.111-0.114,0.307-0.23,0.295-0.321c-0.034-0.275-0.138-0.544-0.245-0.803
		C2.874,10.484,2.639,10.496,2.565,10.558z"/>
	<path fill-rule="evenodd" clip-rule="evenodd" fill="#8BC03F" d="M17.577,0c-0.202,0.042-0.392,0.082-0.775,0.161
		c0.389,0.314,0.635,0.511,0.826,0.666C17.61,0.541,17.594,0.284,17.577,0z"/>
</g>
</symbol>


</svg>